<?xml version="1.0" encoding="UTF-8" standalone="no"?>
<svg
   version="1.0"
   width="1354.1372pt"
   height="1967pt"
   viewBox="0 0 1354.1372 1967"
   preserveAspectRatio="xMidYMid"
   id="svg5"
   sodipodi:docname="listening.svg"
   inkscape:version="1.3 (0e150ed, 2023-07-21)"
   xmlns:inkscape="http://www.inkscape.org/namespaces/inkscape"
   xmlns:sodipodi="http://sodipodi.sourceforge.net/DTD/sodipodi-0.dtd"
   xmlns="http://www.w3.org/2000/svg"
   xmlns:svg="http://www.w3.org/2000/svg">
  <defs
     id="defs5" />
  <sodipodi:namedview
     id="namedview5"
     pagecolor="#ffffff"
     bordercolor="#000000"
     borderopacity="0"
     inkscape:showpageshadow="2"
     inkscape:pageopacity="0.0"
     inkscape:pagecheckerboard="0"
     inkscape:deskcolor="#d1d1d1"
     inkscape:document-units="pt"
     inkscape:zoom="0.11895161"
     inkscape:cx="966.77968"
     inkscape:cy="1361.8983"
     inkscape:window-width="1440"
     inkscape:window-height="847"
     inkscape:window-x="0"
     inkscape:window-y="25"
     inkscape:window-maximized="0"
     inkscape:current-layer="svg5" />
  <g
     transform="matrix(0.1,0,0,-0.1,-17.724464,2150)"
     fill="#000000"
     stroke="none"
     id="g5"
     style="fill:#000000">
    <path
       d="m 5045,21490 c 3,-5 -14,-14 -37,-20 -215,-57 -399,-175 -537,-344 -32,-39 -64,-83 -72,-98 -8,-14 -26,-49 -42,-78 -75,-142 -124,-384 -107,-525 13,-103 30,-183 52,-245 96,-266 278,-466 531,-585 42,-19 81,-44 87,-54 11,-22 13,-1055 2,-1082 -4,-9 -36,-41 -72,-70 -36,-30 -67,-57 -70,-60 -3,-4 -38,-34 -78,-67 -40,-34 -106,-96 -146,-139 -40,-43 -99,-105 -130,-138 -32,-33 -67,-73 -79,-88 -24,-31 -112,-145 -125,-162 -61,-79 -118,-164 -147,-220 -9,-16 -26,-46 -38,-66 -66,-110 -127,-220 -127,-229 0,-6 -8,-28 -19,-48 -18,-35 -41,-87 -81,-177 -28,-61 -50,-125 -65,-180 -7,-27 -18,-63 -24,-80 -28,-81 -44,-136 -56,-195 -7,-36 -17,-83 -23,-105 -6,-22 -13,-65 -17,-95 -4,-30 -13,-80 -20,-110 -25,-99 -35,-470 -35,-1326 0,-788 -1,-842 -17,-857 -16,-13 -68,-16 -373,-20 -281,-3 -366,-7 -406,-19 -81,-25 -140,-73 -194,-162 -24,-40 -25,-48 -28,-261 -2,-121 -8,-224 -13,-230 -7,-6 -265,-10 -732,-11 -397,-1 -742,-5 -767,-9 -100,-17 -273,-68 -300,-90 -8,-6 -40,-24 -70,-40 -72,-36 -186,-130 -247,-203 -26,-31 -53,-61 -59,-67 -31,-27 -130,-223 -140,-275 -4,-19 -13,-48 -21,-63 -35,-70 -34,-424 1,-509 9,-21 16,-45 16,-53 0,-15 40,-111 60,-145 5,-8 25,-42 44,-75 61,-105 211,-252 339,-331 53,-33 228,-106 272,-114 22,-4 76,-17 119,-29 67,-18 108,-21 263,-21 115,0 183,4 183,10 0,16 1025,14 1038,-2 7,-9 12,-284 16,-813 6,-837 8,-931 26,-1005 6,-25 17,-85 25,-135 23,-139 35,-195 55,-260 10,-33 22,-76 25,-95 4,-19 11,-40 15,-45 5,-6 15,-37 23,-70 17,-68 39,-130 68,-193 10,-23 28,-63 40,-90 61,-141 102,-223 159,-317 27,-44 56,-93 65,-110 33,-64 70,-117 170,-251 111,-147 101,-134 155,-192 128,-138 252,-262 305,-307 33,-27 62,-53 65,-56 3,-3 37,-32 75,-64 39,-32 73,-64 77,-69 4,-6 8,-497 8,-1091 1,-602 5,-1098 10,-1120 30,-132 71,-247 112,-315 15,-25 37,-62 48,-82 30,-56 194,-216 275,-270 70,-46 172,-98 193,-98 26,0 32,-45 32,-232 0,-138 -3,-197 -12,-206 -9,-9 -105,-12 -369,-12 -349,0 -358,-1 -418,-23 -69,-26 -131,-74 -163,-127 -21,-34 -116,-216 -238,-455 -34,-66 -65,-127 -71,-135 -5,-8 -14,-26 -19,-40 -6,-14 -48,-97 -95,-185 -46,-88 -109,-210 -140,-271 -63,-123 -64,-124 -162,-124 -129,0 -241,-61 -302,-165 -33,-56 -35,-65 -35,-155 -1,-72 3,-102 16,-125 9,-16 21,-39 27,-51 13,-28 88,-92 129,-109 17,-8 32,-19 32,-24 0,-8 499,-11 1635,-11 1121,0 1635,3 1635,10 0,6 19,19 43,30 71,32 119,87 153,175 18,48 19,85 19,790 v 740 l -28,58 c -40,85 -109,148 -191,175 -63,21 -84,22 -426,22 -248,0 -361,3 -366,11 -3,6 -7,93 -9,192 -2,186 7,247 37,247 30,0 237,115 268,150 3,3 25,23 50,45 63,55 135,144 187,230 23,38 74,149 80,175 3,14 10,30 14,36 5,6 18,76 29,154 18,132 20,199 20,822 0,645 1,678 18,687 24,13 2010,12 2035,-1 16,-8 17,-51 17,-687 0,-826 6,-891 101,-1105 91,-206 299,-407 507,-492 30,-12 59,-27 65,-33 13,-13 17,-378 5,-411 -7,-19 -17,-20 -367,-20 -341,0 -364,-1 -426,-21 -81,-27 -153,-92 -192,-176 l -28,-58 v -740 -740 l 24,-62 c 26,-68 92,-143 145,-164 17,-7 35,-19 39,-26 7,-11 307,-13 1642,-13 1106,0 1635,3 1635,10 0,6 12,16 28,22 50,22 120,88 148,141 25,46 28,62 28,147 0,87 -2,99 -29,145 -37,66 -51,81 -103,116 -47,32 -142,59 -208,59 -94,0 -97,2 -158,124 -31,61 -95,183 -141,271 -47,88 -89,171 -95,185 -5,14 -14,32 -19,40 -6,8 -37,69 -71,135 -122,239 -217,421 -238,455 -32,53 -94,101 -163,127 -60,22 -69,23 -418,23 -264,0 -360,3 -369,12 -13,13 -17,394 -4,414 4,7 39,26 77,43 39,18 102,53 140,79 80,53 245,215 275,270 12,20 33,57 48,82 41,68 82,183 112,315 5,22 9,518 10,1121 0,849 3,1083 13,1095 6,9 39,38 72,65 125,102 202,172 299,273 56,58 119,123 141,145 22,22 70,81 107,131 37,49 70,95 75,100 5,6 26,35 48,65 22,30 43,57 47,60 4,3 12,17 18,30 6,14 22,43 35,65 24,40 45,74 89,150 29,48 75,141 105,210 12,28 28,64 36,80 47,105 64,148 85,215 12,41 29,91 36,110 8,19 19,57 24,85 6,27 15,54 20,60 5,7 14,43 19,81 6,38 15,83 20,99 6,17 15,66 20,110 6,45 15,94 21,110 20,51 29,425 30,1126 0,519 3,688 12,697 9,9 139,12 524,12 458,0 513,-2 518,-16 10,-27 7,-2834 -4,-2853 -5,-10 -124,-76 -264,-145 -140,-70 -272,-143 -294,-162 -22,-19 -53,-56 -69,-82 l -28,-47 v -445 -445 l 29,-49 c 34,-57 58,-83 104,-115 38,-27 121,-51 174,-51 51,0 147,26 172,47 61,51 90,83 114,128 l 27,50 3,280 c 3,275 3,280 25,297 12,10 91,52 175,94 126,63 158,75 184,70 17,-3 37,-11 44,-17 7,-6 64,-35 126,-65 62,-29 128,-65 146,-79 l 32,-26 v -282 c 0,-204 -4,-289 -13,-306 -9,-18 -84,-61 -277,-158 -231,-115 -271,-139 -310,-182 -57,-62 -96,-165 -88,-232 14,-114 74,-205 176,-266 44,-26 54,-28 147,-27 l 100,1 367,185 c 202,102 385,200 407,217 61,49 101,115 112,186 6,35 9,298 7,616 l -3,554 -29,54 c -48,92 -72,110 -286,216 -74,36 -142,70 -150,75 -35,21 -139,70 -148,70 -5,0 -18,10 -30,23 l -22,23 2,1463 3,1464 70,31 c 97,44 127,63 209,127 84,66 176,164 220,235 17,27 37,59 44,70 6,10 15,26 18,34 4,8 17,38 30,67 13,28 24,58 24,66 0,8 7,31 16,52 35,85 36,442 1,512 -8,15 -17,44 -21,63 -10,52 -109,248 -140,275 -6,6 -33,36 -59,67 -61,73 -175,167 -247,203 -30,16 -62,34 -70,40 -26,21 -202,74 -300,90 -25,4 -370,8 -767,9 -467,1 -725,5 -732,11 -5,6 -11,109 -13,230 -3,213 -4,221 -28,261 -62,102 -123,146 -232,168 -61,13 -146,16 -402,16 -282,0 -327,2 -340,16 -14,14 -16,105 -16,857 0,820 -10,1230 -32,1312 -5,22 -16,78 -24,125 -24,152 -55,280 -95,395 -6,17 -17,53 -24,80 -23,86 -58,172 -149,365 -14,30 -26,58 -26,62 0,6 -86,157 -157,276 -12,20 -29,50 -39,67 -18,32 -56,84 -164,225 -70,92 -112,140 -220,253 -52,54 -96,103 -98,108 -2,4 -40,39 -85,76 -45,36 -92,76 -104,87 -12,12 -46,41 -76,66 -31,25 -58,54 -61,65 -7,26 -8,1043 0,1071 4,14 31,32 85,57 251,115 417,293 528,562 45,110 74,309 60,419 -23,188 -54,282 -149,455 -8,16 -40,58 -69,96 -121,151 -318,283 -486,327 -64,17 -95,30 -95,39 0,5 -88,9 -195,9 -118,0 -195,-4 -195,-10 0,-5 -19,-14 -42,-21 -224,-60 -399,-172 -540,-346 -31,-37 -70,-95 -87,-127 -17,-33 -35,-64 -40,-70 -25,-34 -77,-228 -91,-346 -10,-90 -3,-178 25,-310 17,-82 21,-92 86,-224 95,-194 278,-368 477,-455 40,-18 72,-39 79,-53 10,-17 12,-106 10,-358 -2,-324 -3,-335 -22,-339 -10,-2 -33,4 -50,12 -45,24 -153,67 -166,67 -6,0 -25,7 -42,15 -31,14 -82,31 -177,55 -25,7 -72,20 -105,30 -33,10 -85,22 -115,25 -30,4 -66,12 -80,17 -13,5 -76,15 -140,23 -63,8 -151,20 -195,26 -97,13 -599,6 -665,-10 -25,-6 -83,-15 -130,-20 -92,-9 -208,-32 -310,-60 -36,-10 -85,-24 -110,-30 -97,-26 -146,-42 -177,-56 -17,-8 -36,-15 -42,-15 -14,0 -126,-45 -164,-66 -17,-9 -38,-13 -53,-10 l -24,6 v 336 c 0,198 4,343 10,353 8,15 125,81 144,81 13,0 163,108 211,152 107,97 210,258 263,408 62,174 72,359 28,535 -28,113 -54,193 -70,215 -6,8 -25,41 -41,73 -54,104 -223,280 -330,344 -82,48 -222,107 -278,117 -21,4 -41,14 -44,22 -4,11 -41,14 -210,14 -126,0 -202,-4 -198,-10 z m 262,-640 c 113,-19 201,-83 259,-190 27,-49 29,-62 29,-155 0,-92 -3,-107 -29,-158 -38,-75 -92,-130 -165,-167 -54,-27 -70,-30 -153,-30 -82,0 -100,4 -153,29 -74,35 -134,93 -171,168 -26,51 -29,66 -28,157 0,89 3,107 26,151 66,124 163,187 313,204 6,0 38,-4 72,-9 z m 3407,-1 c 110,-20 198,-87 254,-194 23,-44 26,-62 26,-151 1,-91 -2,-106 -28,-157 -37,-74 -95,-131 -169,-168 -53,-26 -69,-29 -153,-29 -85,0 -100,3 -155,30 -71,36 -130,94 -166,164 -24,45 -27,63 -27,157 -1,98 1,109 28,160 67,123 167,186 317,198 8,0 41,-4 73,-10 z M 7125,18471 c 94,-5 206,-16 250,-25 44,-8 103,-19 130,-24 102,-19 259,-63 365,-104 30,-11 73,-27 95,-36 42,-16 203,-89 270,-124 66,-34 259,-157 314,-199 14,-11 52,-40 84,-64 120,-90 380,-348 460,-456 9,-13 34,-46 55,-74 76,-101 174,-258 225,-360 46,-92 105,-220 115,-250 6,-16 23,-61 37,-100 29,-77 57,-173 80,-277 8,-37 19,-77 24,-90 5,-13 12,-55 16,-93 4,-39 13,-110 21,-160 18,-115 31,-609 17,-627 -7,-9 -8,-140 -2,-413 11,-573 11,-923 -1,-946 -10,-19 -34,-19 -1160,-19 -1142,0 -1149,0 -1155,20 -4,11 -3,45 0,74 14,107 -49,229 -142,279 -115,62 -243,44 -336,-48 -50,-49 -75,-109 -89,-210 -6,-47 -17,-87 -27,-97 -15,-16 -48,-18 -386,-18 -433,-1 -413,-6 -374,97 6,18 47,34 226,93 119,39 227,77 238,83 38,21 96,95 116,148 16,40 18,64 13,113 -8,76 -21,101 -73,148 -23,20 -41,40 -41,45 0,4 171,8 379,8 368,0 380,1 408,21 40,29 66,85 58,127 -8,43 -52,86 -97,96 -59,14 -698,1 -735,-14 -58,-24 -87,-97 -63,-159 11,-31 -1,-33 -65,-14 -22,6 -44,10 -50,9 -5,-2 -35,-9 -65,-17 -84,-20 -600,-188 -640,-209 -51,-26 -99,-74 -122,-124 -19,-43 -29,-93 -64,-321 -8,-57 -20,-110 -26,-117 -8,-10 -136,-13 -599,-13 -571,0 -589,1 -599,19 -15,29 -14,668 2,677 8,5 9,91 2,343 -13,482 -10,823 9,956 9,61 18,137 22,170 3,33 12,83 20,110 7,28 23,85 34,127 12,43 21,85 21,93 0,9 8,37 19,63 10,26 31,81 46,122 31,85 62,158 76,180 5,8 12,22 15,30 21,61 149,281 227,391 21,30 50,70 63,89 105,148 353,389 575,559 52,40 245,163 304,194 56,29 240,114 280,129 126,48 156,59 210,76 69,23 177,50 250,63 28,6 86,17 130,26 68,13 238,27 400,31 22,0 117,-3 210,-7 z M 3659,13382 c 38,-1 61,-6 55,-11 -16,-15 -485,-162 -507,-159 -20,3 -22,9 -22,83 v 80 l 30,5 c 27,5 283,5 444,2 z m 7036,-6 c 14,-5 15,-175 12,-1788 -3,-1723 -4,-1788 -24,-1943 -21,-167 -41,-265 -74,-375 -10,-36 -19,-74 -19,-85 -1,-11 -9,-38 -20,-60 -11,-22 -20,-47 -20,-55 0,-8 -9,-33 -20,-55 -11,-22 -19,-46 -20,-54 0,-16 -98,-223 -159,-336 -9,-16 -31,-52 -49,-78 -17,-26 -32,-51 -32,-54 0,-10 -49,-81 -91,-133 -20,-25 -49,-63 -63,-85 -70,-103 -381,-408 -500,-490 -28,-20 -76,-53 -106,-75 -30,-23 -71,-50 -90,-61 -19,-11 -48,-28 -65,-39 -59,-37 -140,-81 -162,-86 -12,-3 -27,-12 -34,-20 -6,-8 -17,-14 -23,-14 -6,0 -24,-7 -41,-16 -103,-53 -415,-157 -555,-184 -277,-54 -261,-53 -762,-58 -375,-4 -481,-2 -493,8 -13,11 -15,150 -15,1200 0,938 3,1190 13,1198 8,7 224,12 622,15 397,3 622,8 645,15 19,6 60,18 90,26 191,52 367,140 497,248 130,109 267,270 330,390 18,33 37,66 41,72 9,12 49,119 80,216 31,94 61,349 51,430 -22,186 -32,248 -45,280 -8,19 -19,54 -25,78 -9,41 -68,170 -124,272 -27,48 -110,156 -175,226 -44,48 -222,195 -261,215 -134,70 -237,119 -252,119 -10,0 -34,7 -55,16 -20,9 -73,25 -117,37 -76,19 -114,21 -687,24 -483,3 -609,7 -617,17 -8,9 -10,169 -9,527 l 3,514 29,5 c 42,7 3372,4 3391,-4 z m -5117,-25 c 10,-5 98,-91 197,-191 99,-100 198,-191 220,-203 32,-17 56,-21 125,-20 77,1 104,7 280,66 138,46 199,62 208,55 18,-15 18,-711 -1,-726 -8,-7 -208,-12 -612,-14 -644,-4 -662,-5 -797,-59 -26,-10 -55,-19 -65,-19 -15,0 -135,-57 -254,-120 -15,-8 -72,-51 -126,-94 -99,-81 -175,-161 -258,-271 -54,-73 -160,-283 -174,-345 -6,-25 -17,-61 -25,-80 -13,-32 -24,-102 -45,-280 -4,-36 -4,-94 0,-130 22,-183 32,-248 45,-280 8,-19 19,-54 25,-78 9,-41 72,-178 124,-271 76,-135 298,-362 423,-432 154,-87 253,-130 382,-165 30,-8 71,-20 90,-26 23,-7 251,-12 645,-15 397,-3 614,-8 623,-15 9,-8 12,-260 12,-1198 0,-1050 -2,-1189 -15,-1200 -12,-10 -117,-12 -493,-8 -497,6 -506,6 -762,57 -83,17 -289,76 -335,96 -16,7 -66,27 -110,43 -44,17 -93,38 -110,46 -16,9 -35,16 -41,16 -6,0 -17,6 -23,14 -7,8 -22,17 -34,20 -22,5 -103,49 -162,86 -16,11 -46,29 -65,40 -77,45 -114,72 -263,189 -118,92 -387,364 -437,441 -8,12 -33,46 -55,74 -40,50 -65,86 -95,137 -8,14 -32,54 -53,90 -21,35 -42,71 -47,79 -22,34 -140,288 -140,301 -1,8 -9,32 -20,54 -11,22 -20,47 -20,55 0,8 -9,33 -20,55 -11,22 -19,50 -20,62 0,12 -7,44 -16,70 -22,65 -53,210 -65,308 -35,278 -37,361 -38,1687 -1,1183 0,1318 15,1332 8,9 140,56 292,106 885,288 2058,668 2065,669 5,1 16,-3 25,-8 z m -4243,-691 c 84,-48 147,-125 173,-213 27,-91 27,-113 0,-205 -18,-59 -33,-85 -76,-132 -29,-33 -77,-72 -105,-87 -48,-26 -61,-28 -162,-28 -98,1 -114,3 -150,25 -106,63 -147,111 -186,215 -48,128 0,299 108,382 94,72 134,84 261,78 70,-3 91,-9 137,-35 z m 10440,21 c 3,-10 -4,-43 -17,-72 -20,-50 -22,-70 -22,-259 -1,-192 1,-209 23,-267 13,-35 21,-69 17,-78 -4,-13 -35,-15 -201,-15 -116,0 -204,4 -216,10 -18,10 -19,25 -19,345 0,308 1,335 18,344 10,6 99,11 214,11 184,0 197,-1 203,-19 z m 1098,-12 c 203,-105 266,-336 145,-525 -30,-46 -81,-90 -148,-125 -39,-21 -58,-24 -150,-24 -95,0 -110,3 -157,28 -77,41 -151,128 -179,213 -30,86 -30,119 -2,211 17,57 33,86 70,127 54,61 123,105 183,117 68,13 193,2 238,-22 z M 2550,12202 c 0,-133 -4,-192 -12,-200 -9,-9 -71,-12 -215,-12 -234,0 -228,-3 -194,86 11,31 21,73 21,93 0,20 6,45 13,54 12,16 349,166 375,167 9,0 12,-44 12,-188 z m 5860,-531 c 95,-12 239,-67 294,-112 67,-54 97,-85 147,-147 33,-40 59,-78 59,-84 0,-6 6,-19 14,-27 8,-9 27,-52 42,-96 26,-73 28,-92 28,-220 0,-150 -11,-202 -72,-320 -50,-99 -175,-234 -256,-277 -102,-53 -149,-70 -252,-88 -109,-19 -160,-20 -1467,-20 -1309,0 -1358,1 -1469,20 -121,21 -253,73 -301,120 -8,8 -32,29 -52,45 -41,33 -120,130 -153,188 -12,20 -34,72 -49,115 -24,70 -27,90 -27,217 0,127 3,147 27,217 33,93 55,133 119,214 120,153 269,236 464,257 147,16 2779,14 2904,-2 z M 4625,6849 c 6,-4 28,-14 50,-22 22,-8 72,-27 110,-42 39,-14 93,-32 120,-40 28,-7 64,-18 80,-23 42,-15 183,-50 228,-58 20,-3 40,-11 44,-17 10,-16 11,-451 1,-477 -6,-17 -13,-21 -31,-15 -170,51 -361,68 -467,41 -30,-7 -86,-19 -124,-26 -64,-12 -70,-11 -83,5 -10,15 -13,88 -13,347 v 329 l 23,8 c 22,8 43,5 62,-10 z m 4722,-326 c 2,-263 -1,-334 -11,-349 -13,-17 -18,-17 -142,9 -80,17 -160,27 -211,27 -78,0 -244,-28 -306,-52 -20,-8 -31,-8 -39,0 -14,14 -14,480 -1,492 4,4 31,12 58,18 87,17 189,43 225,57 19,7 73,25 120,39 84,26 147,51 224,86 25,12 46,16 60,10 21,-7 21,-12 23,-337 z M 5054,5531 c 79,-37 138,-96 176,-177 26,-55 30,-75 30,-148 0,-67 -5,-94 -24,-136 -31,-67 -101,-149 -142,-166 -18,-8 -35,-18 -38,-23 -10,-16 -137,-32 -195,-26 -140,17 -261,120 -295,253 -19,71 -20,112 -5,184 21,99 95,191 194,239 52,25 71,29 149,29 78,0 97,-4 150,-29 z m 4081,0 c 127,-61 204,-184 205,-325 1,-173 -136,-329 -307,-350 -60,-7 -180,9 -203,28 -8,7 -27,17 -41,23 -31,13 -113,108 -124,143 -4,14 -14,34 -21,45 -9,13 -14,49 -14,107 0,77 4,96 30,152 38,80 97,139 175,177 52,25 71,29 150,29 79,0 98,-4 150,-29 z M 5581,3179 c 18,-9 19,-28 19,-347 0,-250 -3,-341 -12,-350 -9,-9 -228,-12 -924,-12 -792,0 -913,2 -924,15 -10,12 -1,36 47,132 128,253 223,436 232,447 5,6 12,23 16,37 4,14 19,40 35,57 l 29,32 732,-1 c 467,0 738,-3 750,-10 z m 4230,-10 c 12,-12 30,-40 41,-63 10,-22 57,-113 103,-201 181,-348 208,-405 195,-420 -11,-13 -135,-15 -924,-15 -696,0 -915,3 -924,12 -9,9 -12,100 -12,350 0,310 1,338 18,347 11,7 268,10 750,10 726,0 733,0 753,-20 z"
       id="path1"
       style="fill:#000000" />
    <path
       d="m 7960,18027 c -80,-16 -125,-35 -169,-73 -66,-55 -75,-131 -23,-187 48,-51 108,-53 187,-5 23,14 51,18 121,18 81,0 97,-3 151,-30 32,-16 86,-54 119,-83 71,-64 93,-77 134,-77 71,0 120,53 120,131 0,38 -6,47 -77,119 -88,87 -171,139 -270,170 -84,27 -207,34 -293,17 z"
       id="path2"
       style="fill:#000000" />
    <path
       d="m 5564,17986 c -64,-16 -142,-56 -214,-109 -101,-76 -140,-130 -140,-194 0,-80 89,-143 160,-114 14,5 50,33 80,63 31,29 80,66 110,83 51,27 63,29 160,30 h 105 l 122,-62 c 67,-33 139,-64 161,-68 50,-8 104,13 129,51 23,35 23,102 1,135 -21,33 -302,173 -376,188 -70,14 -234,13 -298,-3 z"
       id="path3"
       style="fill:#000000" />
    <path
       d="m 5838,17073 c -14,-2 -32,-11 -38,-19 -7,-8 -18,-14 -25,-14 -20,0 -84,-55 -112,-97 -47,-69 -63,-156 -63,-352 0,-143 4,-189 19,-243 36,-126 110,-198 240,-234 61,-17 66,-17 134,0 111,29 182,90 228,196 23,53 24,64 24,290 -1,232 -1,236 -27,290 -54,115 -154,182 -278,186 -41,1 -87,0 -102,-3 z"
       id="path4"
       style="fill:#000000" />
    <path
       d="m 7880,17071 c -88,-29 -181,-108 -201,-170 -6,-20 -17,-42 -23,-50 -7,-9 -11,-91 -11,-250 0,-226 1,-238 24,-290 47,-110 114,-167 228,-197 68,-17 73,-17 134,0 130,36 204,108 240,234 15,54 19,100 19,243 0,284 -35,372 -185,458 -30,18 -59,24 -120,27 -44,2 -91,0 -105,-5 z"
       id="path5"
       style="fill:#000000" />
  </g>
</svg>
