<?xml version="1.0" encoding="UTF-8" standalone="no"?>
<svg
   version="1.0"
   width="1348.9907pt"
   height="1965.4768pt"
   viewBox="0 0 1348.9907 1965.4768"
   preserveAspectRatio="xMidYMid"
   id="svg6"
   sodipodi:docname="hello.svg"
   inkscape:version="1.3 (0e150ed, 2023-07-21)"
   xmlns:inkscape="http://www.inkscape.org/namespaces/inkscape"
   xmlns:sodipodi="http://sodipodi.sourceforge.net/DTD/sodipodi-0.dtd"
   xmlns="http://www.w3.org/2000/svg"
   xmlns:svg="http://www.w3.org/2000/svg">
  <defs
     id="defs6" />
  <sodipodi:namedview
     id="namedview6"
     pagecolor="#ffffff"
     bordercolor="#000000"
     borderopacity="0.25"
     inkscape:showpageshadow="2"
     inkscape:pageopacity="0.0"
     inkscape:pagecheckerboard="0"
     inkscape:deskcolor="#d1d1d1"
     inkscape:document-units="pt"
     inkscape:zoom="0.078111209"
     inkscape:cx="294.45198"
     inkscape:cy="1433.8531"
     inkscape:window-width="1312"
     inkscape:window-height="449"
     inkscape:window-x="0"
     inkscape:window-y="25"
     inkscape:window-maximized="0"
     inkscape:current-layer="g6" />
  <g
     transform="matrix(0.1,0,0,-0.1,-19.98048,2148.3768)"
     fill="#000000"
     stroke="none"
     id="g6">
    <path
       d="m 5219,21468 c -20,-15 -52,-22 -127,-28 -65,-5 -108,-13 -123,-24 -13,-9 -33,-16 -45,-16 -23,0 -140,-55 -149,-71 -4,-5 -15,-9 -26,-9 -49,0 -329,-290 -329,-341 0,-10 -9,-23 -20,-29 -11,-6 -20,-20 -20,-31 0,-12 -9,-32 -20,-46 -11,-14 -20,-39 -20,-56 0,-17 -9,-50 -21,-73 -19,-40 -20,-58 -17,-261 3,-188 5,-221 21,-243 9,-13 17,-36 17,-51 0,-14 9,-38 20,-52 11,-14 20,-35 20,-48 0,-12 9,-32 19,-43 11,-12 30,-42 44,-67 44,-85 287,-309 334,-309 6,0 13,-6 16,-14 3,-7 19,-16 37,-19 17,-4 51,-18 75,-33 34,-19 46,-33 50,-57 3,-18 5,-275 3,-573 l -3,-541 -56,-54 c -31,-30 -81,-72 -110,-94 -75,-56 -344,-326 -403,-405 -27,-36 -56,-70 -64,-77 -8,-7 -20,-21 -26,-31 -18,-31 -47,-72 -104,-146 -29,-37 -55,-79 -58,-92 -3,-13 -10,-24 -15,-24 -5,0 -16,-15 -24,-32 -9,-18 -27,-51 -40,-73 -14,-22 -31,-54 -39,-71 -8,-17 -22,-36 -30,-44 -9,-7 -16,-23 -16,-36 0,-13 -9,-28 -20,-34 -12,-6 -20,-21 -20,-35 0,-13 -9,-44 -19,-67 -10,-24 -24,-54 -30,-68 -6,-14 -15,-32 -20,-40 -22,-37 -51,-109 -51,-126 -1,-10 -9,-37 -20,-59 -11,-22 -20,-51 -20,-65 0,-14 -7,-38 -16,-55 -8,-16 -20,-52 -26,-80 -6,-27 -14,-55 -19,-61 -5,-6 -14,-46 -19,-90 -6,-43 -17,-99 -26,-124 -8,-25 -19,-94 -24,-153 -6,-58 -16,-119 -22,-134 -9,-21 -13,-295 -18,-1045 -3,-559 -9,-1020 -13,-1025 -5,-4 -187,-10 -405,-13 -380,-6 -399,-7 -437,-27 -51,-27 -96,-74 -131,-138 -28,-50 -28,-51 -32,-263 -3,-206 -4,-212 -25,-224 -32,-18 -1040,-18 -1081,0 l -29,13 7,77 c 12,133 265,2362 281,2472 19,135 25,141 165,190 19,7 49,18 65,25 84,34 142,55 155,55 9,0 24,6 35,14 11,7 31,16 45,19 125,29 253,102 302,172 46,67 46,64 128,794 51,457 56,519 42,549 -5,9 -19,39 -32,65 -28,58 -128,141 -278,232 -10,5 -48,30 -85,55 -38,25 -76,50 -85,55 -37,22 -199,126 -227,145 -70,48 -121,80 -128,80 -4,0 -24,11 -45,24 -49,32 -109,41 -146,21 -15,-8 -36,-15 -45,-15 -24,0 -100,-51 -144,-97 -44,-46 -55,-79 -63,-189 -6,-75 -5,-84 21,-130 32,-58 96,-127 145,-156 41,-24 93,-57 134,-84 16,-10 44,-28 62,-39 18,-11 60,-39 94,-62 33,-23 69,-45 80,-48 11,-4 25,-15 30,-26 6,-10 17,-19 25,-19 8,0 24,-9 34,-19 22,-22 21,-30 -5,-291 -23,-225 -54,-433 -69,-456 -9,-13 -40,-29 -87,-43 -40,-12 -86,-28 -103,-35 -102,-44 -224,-82 -250,-77 -11,1 -29,11 -41,22 -11,10 -23,19 -27,19 -3,0 -41,24 -84,53 -98,65 -111,73 -146,95 -72,43 -77,50 -77,110 0,31 12,164 26,296 21,190 24,246 15,271 -6,17 -11,40 -11,50 0,28 -65,119 -110,155 -51,40 -115,60 -196,60 -52,0 -72,-5 -116,-31 -102,-60 -153,-127 -167,-222 -12,-74 -77,-643 -85,-742 -13,-150 54,-245 259,-370 19,-12 42,-28 53,-38 10,-9 23,-17 29,-17 6,0 26,-12 46,-27 34,-27 66,-48 131,-86 61,-35 121,-84 138,-113 17,-29 14,-61 -102,-1084 -159,-1398 -188,-1648 -200,-1692 -13,-44 -52,-77 -190,-163 -58,-36 -121,-86 -163,-129 -66,-69 -148,-182 -166,-229 -5,-13 -16,-29 -25,-36 -9,-7 -16,-25 -16,-40 0,-15 -7,-37 -16,-49 -9,-13 -20,-46 -24,-75 -5,-29 -16,-72 -25,-97 -24,-63 -18,-283 7,-320 10,-13 18,-40 18,-60 0,-20 9,-53 20,-75 11,-22 20,-45 20,-51 0,-15 52,-115 82,-157 73,-105 145,-184 205,-227 37,-28 74,-55 82,-62 8,-7 44,-26 80,-44 36,-18 75,-42 86,-54 11,-12 38,-31 60,-43 39,-20 53,-21 450,-20 226,1 593,4 816,8 374,5 407,5 420,-11 12,-14 15,-151 19,-828 4,-603 8,-816 17,-832 7,-11 16,-86 22,-167 6,-105 14,-152 25,-169 11,-15 16,-45 16,-95 0,-54 5,-83 20,-110 11,-21 20,-49 20,-63 0,-14 9,-43 19,-66 10,-23 22,-61 26,-85 4,-24 14,-53 21,-64 8,-11 14,-28 14,-38 0,-20 28,-92 66,-172 13,-28 24,-55 24,-61 0,-7 6,-17 14,-23 8,-7 17,-24 21,-39 9,-37 52,-127 92,-190 18,-29 33,-59 33,-67 0,-8 6,-18 14,-22 8,-4 21,-24 30,-43 9,-19 25,-48 36,-65 11,-16 25,-41 32,-55 7,-14 25,-38 40,-53 15,-16 44,-54 65,-85 20,-31 41,-61 47,-67 6,-5 43,-48 82,-95 114,-136 229,-258 291,-308 31,-26 67,-57 80,-70 13,-12 27,-22 31,-22 4,0 39,-30 77,-67 l 70,-67 6,-1075 c 5,-959 8,-1080 22,-1116 9,-22 16,-63 17,-90 0,-29 8,-65 19,-85 10,-19 21,-49 25,-67 4,-17 14,-37 22,-44 8,-6 14,-19 14,-29 0,-9 8,-28 18,-41 9,-13 22,-31 27,-40 95,-151 227,-269 385,-345 47,-23 95,-45 107,-48 38,-12 45,-62 41,-283 -3,-178 -5,-204 -21,-220 -16,-17 -51,-18 -420,-23 l -402,-5 -40,-29 c -45,-34 -104,-96 -105,-111 0,-6 -9,-18 -20,-28 -11,-9 -20,-24 -20,-33 0,-9 -9,-27 -20,-41 -11,-14 -20,-32 -20,-40 0,-8 -9,-26 -20,-40 -11,-14 -20,-34 -20,-44 0,-10 -4,-20 -10,-24 -5,-3 -37,-61 -70,-128 -33,-67 -64,-129 -69,-137 -13,-24 -37,-70 -80,-155 -23,-44 -46,-88 -51,-97 -6,-10 -14,-26 -20,-35 -5,-10 -35,-67 -65,-128 -64,-124 -84,-163 -97,-185 -5,-8 -16,-31 -26,-52 l -17,-36 -115,-4 c -91,-3 -122,-8 -150,-24 -41,-23 -130,-107 -130,-123 0,-6 -9,-28 -20,-48 -28,-52 -26,-113 7,-181 49,-105 87,-139 185,-169 27,-8 52,-22 59,-34 l 11,-20 1533,3 1533,3 18,23 c 12,14 37,25 67,31 41,7 58,18 110,71 l 61,63 9,146 c 4,80 6,441 2,801 -6,631 -7,655 -25,675 -11,12 -20,25 -20,29 0,13 -51,58 -90,80 -33,19 -61,20 -432,25 -306,5 -400,9 -410,19 -10,10 -13,66 -13,235 0,259 3,277 46,277 17,0 32,6 35,15 3,8 24,20 45,25 21,6 39,15 39,20 0,5 24,21 53,35 68,31 277,234 277,267 0,8 9,23 20,33 11,10 20,24 20,30 0,7 6,18 14,24 8,7 18,27 22,44 4,18 15,48 25,67 11,19 19,46 19,60 0,14 8,39 17,55 16,27 18,98 23,818 5,775 5,789 25,800 11,7 31,15 45,18 14,4 471,7 1015,7 545,0 1001,-3 1015,-7 14,-3 34,-11 45,-18 20,-11 20,-25 25,-800 5,-720 7,-791 23,-818 9,-16 17,-41 17,-55 0,-14 9,-42 20,-63 11,-20 20,-45 20,-56 0,-10 9,-30 20,-44 11,-14 20,-29 20,-35 0,-5 9,-17 20,-27 11,-10 20,-25 20,-33 0,-26 195,-222 250,-252 19,-10 50,-30 69,-44 19,-14 43,-26 53,-26 10,0 26,-9 35,-20 10,-11 30,-20 45,-20 40,0 43,-22 43,-277 0,-169 -3,-225 -13,-235 -10,-10 -104,-14 -410,-19 -371,-5 -399,-6 -432,-25 -39,-22 -90,-67 -90,-80 0,-4 -9,-17 -19,-28 -19,-20 -20,-46 -26,-666 -4,-355 -3,-715 2,-801 l 9,-156 62,-63 c 53,-52 71,-64 110,-71 29,-6 54,-18 66,-31 l 18,-23 1533,-3 1533,-3 11,20 c 7,12 32,26 60,35 27,8 62,22 78,32 32,20 92,84 93,99 0,6 9,28 20,50 11,22 20,59 20,85 0,26 -8,61 -20,83 -11,20 -20,42 -20,48 0,16 -89,100 -130,123 -28,16 -59,21 -150,24 l -115,4 -17,36 c -10,21 -21,44 -26,52 -12,20 -33,61 -76,145 -20,39 -40,77 -45,85 -5,8 -14,26 -20,40 -6,14 -15,32 -20,40 -5,8 -12,22 -16,30 -3,8 -28,56 -55,105 -27,50 -85,163 -130,252 -45,90 -85,165 -91,168 -5,4 -9,14 -9,24 0,10 -9,30 -20,44 -11,14 -20,32 -20,40 0,8 -9,26 -20,40 -11,14 -20,32 -20,41 0,9 -9,24 -20,33 -11,10 -20,22 -20,28 -1,15 -60,77 -105,111 l -40,29 -402,5 c -369,5 -404,6 -420,23 -16,16 -18,42 -21,230 -3,217 2,248 38,268 8,5 56,28 105,51 50,23 116,63 148,88 32,25 69,52 82,60 30,20 99,106 167,209 29,43 78,149 78,167 0,10 7,25 15,34 9,10 19,51 25,98 5,45 15,92 22,104 10,18 14,243 18,1099 l 5,1076 55,52 c 30,28 81,73 114,99 147,118 221,193 380,382 39,47 76,90 82,95 6,6 27,36 47,67 21,31 50,69 65,85 15,15 33,39 40,53 7,14 21,39 32,55 11,17 27,46 36,65 9,19 22,39 30,43 8,4 14,14 14,22 0,8 15,38 33,67 39,61 82,151 92,190 4,15 13,32 21,39 8,6 14,16 14,23 0,6 12,36 26,66 45,95 53,114 59,149 4,18 16,52 26,75 10,22 19,50 19,61 0,11 9,38 20,60 11,22 19,55 20,72 0,18 9,47 20,65 15,25 20,51 20,106 0,47 6,84 16,104 11,20 19,78 25,170 5,77 15,150 22,162 9,16 13,217 17,832 4,667 7,814 19,827 12,15 63,17 543,17 h 529 l 24,-27 24,-28 1,-1428 c 0,-1601 7,-1461 -74,-1498 -23,-10 -48,-23 -56,-28 -8,-5 -26,-14 -40,-20 -14,-6 -54,-27 -90,-46 -36,-19 -70,-35 -76,-35 -6,0 -17,-6 -23,-14 -7,-8 -24,-17 -39,-21 -15,-4 -34,-12 -42,-20 -8,-7 -26,-16 -38,-20 -60,-18 -146,-94 -187,-165 -19,-33 -20,-54 -20,-450 v -415 l 24,-40 c 31,-50 84,-108 133,-141 35,-25 43,-26 125,-22 73,3 95,9 128,30 58,37 99,85 129,150 26,55 27,63 32,295 3,131 7,257 10,280 l 5,42 107,51 c 59,29 114,56 122,61 8,5 31,16 50,24 19,9 43,20 52,25 32,18 62,10 173,-45 61,-30 115,-55 121,-55 6,0 17,-7 24,-15 7,-8 29,-19 50,-25 30,-8 41,-17 49,-42 7,-20 11,-146 11,-355 0,-299 -1,-324 -17,-329 -30,-10 -144,-67 -148,-75 -3,-4 -17,-10 -32,-14 -14,-3 -38,-15 -51,-26 -14,-10 -31,-19 -39,-19 -8,0 -26,-9 -40,-20 -14,-11 -34,-20 -43,-20 -10,0 -23,-6 -29,-13 -6,-8 -29,-19 -51,-26 -22,-6 -40,-16 -40,-20 0,-5 -14,-14 -30,-21 -36,-15 -101,-86 -125,-136 -13,-28 -16,-56 -13,-123 3,-74 7,-91 31,-126 29,-42 114,-115 133,-115 7,0 25,-7 40,-15 37,-19 104,-19 141,-1 15,8 181,90 368,181 187,92 347,171 355,176 63,39 81,54 104,87 14,21 26,42 26,47 0,5 8,17 18,28 16,18 17,61 17,596 v 576 l -23,47 c -37,76 -112,135 -283,221 -85,42 -158,77 -162,77 -5,0 -20,9 -34,20 -14,11 -32,20 -40,20 -8,0 -26,9 -40,20 -14,11 -34,20 -43,20 -10,0 -26,12 -36,28 -18,26 -19,79 -19,1502 v 1475 l 40,22 c 22,13 56,30 75,39 89,40 120,56 120,63 0,4 10,12 23,18 24,11 99,69 135,104 32,32 162,205 162,216 0,5 11,24 25,43 14,19 25,42 25,51 0,9 9,36 20,60 11,24 20,57 20,73 0,16 10,49 21,73 19,40 21,57 17,176 -4,92 -10,143 -22,169 -9,21 -16,50 -16,65 0,16 -9,45 -20,66 -11,20 -20,47 -20,60 0,13 -9,32 -19,41 -11,10 -23,31 -26,47 -4,16 -12,32 -18,36 -7,5 -28,33 -48,63 -20,30 -63,82 -95,115 -58,59 -164,145 -178,145 -4,0 -38,17 -74,39 -37,21 -83,42 -102,46 -19,4 -47,14 -62,21 -51,26 -261,36 -943,43 -502,5 -696,10 -712,19 -21,12 -22,18 -25,224 -4,212 -4,213 -32,263 -35,64 -80,111 -131,138 -38,21 -56,22 -437,27 -218,3 -400,9 -405,13 -4,5 -10,466 -13,1025 -4,741 -9,1024 -18,1044 -6,15 -16,76 -22,135 -6,59 -17,128 -25,153 -8,25 -19,81 -25,124 -5,44 -14,84 -19,90 -5,6 -13,34 -19,61 -6,28 -18,64 -26,80 -9,17 -16,41 -16,55 0,14 -9,43 -20,65 -11,22 -19,52 -20,66 0,14 -9,36 -20,49 -11,13 -20,32 -20,42 0,11 -9,31 -20,45 -11,14 -20,32 -20,40 0,7 -9,31 -20,53 -11,22 -20,50 -20,64 0,15 -8,30 -20,36 -11,6 -20,21 -20,34 0,13 -7,29 -16,36 -8,8 -22,27 -30,44 -8,17 -25,49 -38,71 -14,22 -32,54 -40,70 -27,50 -58,97 -105,160 -77,100 -90,119 -100,143 -6,12 -14,22 -19,22 -5,0 -28,27 -52,61 -53,76 -336,363 -412,418 -31,22 -83,66 -115,98 l -58,56 -3,551 c -1,303 0,561 3,573 6,24 83,73 114,73 12,0 30,9 41,20 11,11 23,20 26,20 4,0 32,16 63,37 75,48 231,209 269,275 16,30 37,60 46,67 9,7 16,22 16,32 0,11 9,36 20,56 11,21 20,47 20,58 0,11 8,32 18,45 15,22 17,55 20,243 3,203 2,221 -17,261 -12,23 -21,56 -21,73 0,17 -9,42 -20,56 -11,14 -20,34 -20,46 0,11 -8,25 -19,30 -10,6 -21,23 -24,38 -5,26 -189,243 -205,243 -4,0 -28,20 -54,45 -26,25 -56,45 -67,45 -11,0 -22,4 -26,9 -8,15 -126,71 -147,71 -10,0 -33,7 -50,16 -17,9 -72,20 -123,24 -91,9 -145,25 -145,42 0,5 -13,-1 -29,-13 -22,-16 -51,-23 -129,-29 -65,-5 -108,-13 -123,-24 -13,-9 -33,-16 -45,-16 -23,0 -140,-55 -149,-71 -4,-5 -15,-9 -26,-9 -10,0 -40,-19 -66,-42 -26,-24 -71,-65 -101,-93 -70,-64 -162,-179 -162,-202 0,-10 -9,-24 -20,-31 -11,-7 -20,-22 -20,-33 0,-11 -9,-32 -20,-46 -11,-14 -20,-39 -20,-54 0,-16 -9,-46 -20,-66 -18,-34 -20,-57 -20,-256 0,-197 2,-223 19,-256 11,-20 22,-52 26,-72 3,-21 12,-42 20,-49 8,-7 15,-22 15,-33 0,-11 8,-30 19,-41 10,-12 30,-42 43,-68 40,-75 290,-308 332,-308 3,0 15,-9 26,-20 11,-11 28,-20 39,-20 31,0 111,-50 117,-73 3,-12 4,-183 2,-380 -3,-333 -4,-360 -21,-372 -15,-11 -23,-11 -45,1 -15,8 -38,14 -50,14 -13,0 -35,9 -49,20 -14,11 -35,20 -47,20 -12,0 -38,9 -59,20 -20,11 -45,20 -56,20 -10,0 -38,9 -62,20 -24,11 -55,20 -69,20 -14,0 -38,7 -55,16 -16,9 -57,20 -91,25 -33,4 -74,15 -90,24 -16,8 -46,15 -67,15 -21,0 -77,9 -125,19 -209,47 -907,47 -1057,0 -16,-5 -66,-13 -109,-19 -43,-5 -84,-14 -91,-20 -6,-5 -41,-14 -77,-19 -36,-5 -79,-16 -96,-25 -17,-9 -44,-16 -59,-16 -16,0 -45,-9 -66,-20 -20,-11 -47,-20 -59,-20 -13,0 -36,-9 -53,-20 -16,-11 -44,-20 -61,-20 -18,0 -38,-8 -49,-20 -10,-11 -30,-20 -44,-20 -14,0 -38,-6 -53,-14 -22,-12 -30,-12 -45,-1 -17,12 -18,39 -21,372 -2,197 -1,368 2,380 6,22 85,73 115,73 9,0 42,18 74,40 31,22 62,40 67,40 21,0 240,231 264,278 13,27 32,54 40,61 9,8 16,24 16,36 0,12 7,28 15,35 8,7 17,28 21,49 3,20 14,47 23,61 13,21 17,62 19,253 3,215 2,231 -17,268 -12,22 -21,52 -21,68 0,16 -9,40 -20,54 -11,14 -20,35 -20,46 0,11 -9,26 -20,33 -11,7 -20,20 -20,28 0,26 -82,130 -157,200 -130,121 -153,140 -172,140 -11,0 -23,4 -26,10 -9,15 -106,62 -145,71 -19,4 -53,14 -75,23 -22,8 -62,16 -90,16 -71,1 -137,16 -149,33 -10,12 -15,11 -37,-5 z m 88,-618 c 113,-19 201,-83 259,-190 27,-49 29,-62 29,-155 0,-92 -3,-107 -29,-158 -38,-75 -92,-130 -165,-167 -54,-27 -70,-30 -153,-30 -82,0 -100,4 -153,29 -74,35 -134,93 -171,168 -26,51 -29,66 -28,157 0,89 3,107 26,151 66,124 163,187 313,204 6,0 38,-4 72,-9 z m 3407,-1 c 110,-20 198,-87 254,-194 23,-44 26,-62 26,-151 1,-91 -2,-106 -28,-157 -37,-74 -95,-131 -169,-168 -53,-26 -69,-29 -153,-29 -85,0 -100,3 -155,30 -71,36 -130,94 -166,164 -24,45 -27,63 -27,157 -1,98 1,109 28,160 67,123 167,186 317,198 8,0 41,-4 73,-10 z M 7125,18471 c 94,-5 206,-16 250,-25 44,-8 103,-19 130,-24 102,-19 259,-63 365,-104 30,-11 73,-27 95,-36 42,-16 203,-89 270,-124 66,-34 259,-157 314,-199 14,-11 52,-40 84,-64 120,-90 380,-348 460,-456 9,-13 34,-46 55,-74 76,-101 174,-258 225,-360 46,-92 105,-220 115,-250 6,-16 23,-61 37,-100 29,-77 57,-173 80,-277 8,-37 19,-77 24,-90 5,-13 12,-55 16,-93 4,-39 13,-110 21,-160 18,-115 31,-609 17,-627 -7,-9 -8,-140 -2,-413 12,-620 11,-928 -3,-948 -12,-16 -187,-17 -2733,-17 -2547,0 -2721,1 -2732,17 -18,23 -19,668 -1,679 8,5 9,91 2,343 -13,482 -10,823 9,956 9,61 18,137 22,170 3,33 12,83 20,110 7,28 23,85 34,127 12,43 21,85 21,93 0,9 8,37 19,63 10,26 31,81 46,122 31,85 62,158 76,180 5,8 12,22 15,30 21,61 149,281 227,391 21,30 50,70 63,89 105,148 353,389 575,559 52,40 245,163 304,194 56,29 240,114 280,129 126,48 156,59 210,76 69,23 177,50 250,63 28,6 86,17 130,26 68,13 238,27 400,31 22,0 117,-3 210,-7 z m -517,-5095 c 18,-11 17,-1029 -1,-1044 -8,-7 -208,-12 -612,-14 -644,-4 -662,-5 -797,-59 -26,-10 -55,-19 -65,-19 -15,0 -135,-57 -254,-120 -15,-8 -72,-51 -126,-94 -99,-81 -175,-161 -258,-271 -54,-73 -160,-283 -174,-345 -6,-25 -17,-61 -25,-80 -13,-32 -24,-102 -45,-280 -4,-36 -4,-94 0,-130 22,-183 32,-248 45,-280 8,-19 19,-54 25,-78 9,-41 72,-178 124,-271 76,-135 298,-362 423,-432 154,-87 253,-130 382,-165 30,-8 71,-20 90,-26 23,-7 251,-12 645,-15 397,-3 614,-8 623,-15 9,-8 12,-260 12,-1198 0,-1050 -2,-1189 -15,-1200 -12,-10 -117,-12 -493,-8 -497,6 -506,6 -762,57 -83,17 -289,76 -335,96 -16,7 -66,27 -110,43 -44,17 -93,38 -110,46 -16,9 -35,16 -41,16 -6,0 -17,6 -23,14 -7,8 -22,17 -34,20 -22,5 -103,49 -162,86 -16,11 -46,29 -65,40 -77,45 -114,72 -263,189 -118,92 -387,364 -437,441 -8,12 -33,46 -55,74 -40,50 -65,86 -95,137 -8,14 -32,54 -53,90 -21,35 -42,71 -47,79 -22,34 -140,288 -140,301 -1,8 -9,32 -20,54 -11,22 -20,47 -20,55 0,8 -9,33 -20,55 -11,22 -19,50 -20,62 0,12 -7,44 -16,70 -22,65 -53,210 -65,308 -36,286 -37,338 -36,2090 l 2,1720 29,5 c 48,8 3380,5 3394,-4 z m 4087,0 c 14,-5 15,-175 12,-1788 -3,-1723 -4,-1788 -24,-1943 -21,-167 -41,-265 -74,-375 -10,-36 -19,-74 -19,-85 -1,-11 -9,-38 -20,-60 -11,-22 -20,-47 -20,-55 0,-8 -9,-33 -20,-55 -11,-22 -19,-46 -20,-54 0,-16 -98,-223 -159,-336 -9,-16 -31,-52 -49,-78 -17,-26 -32,-51 -32,-54 0,-10 -49,-81 -91,-133 -20,-25 -49,-63 -63,-85 -70,-103 -381,-408 -500,-490 -28,-20 -76,-53 -106,-75 -30,-23 -71,-50 -90,-61 -19,-11 -48,-28 -65,-39 -59,-37 -140,-81 -162,-86 -12,-3 -27,-12 -34,-20 -6,-8 -17,-14 -23,-14 -6,0 -24,-7 -41,-16 -103,-53 -415,-157 -555,-184 -277,-54 -261,-53 -762,-58 -375,-4 -481,-2 -493,8 -13,11 -15,150 -15,1200 0,938 3,1190 13,1198 8,7 224,12 622,15 397,3 622,8 645,15 19,6 60,18 90,26 191,52 367,140 497,248 130,109 267,270 330,390 18,33 37,66 41,72 9,12 49,119 80,216 31,94 61,349 51,430 -22,186 -32,248 -45,280 -8,19 -19,54 -25,78 -9,41 -68,170 -124,272 -27,48 -110,156 -175,226 -44,48 -222,195 -261,215 -134,70 -237,119 -252,119 -10,0 -34,7 -55,16 -20,9 -73,25 -117,37 -76,19 -114,21 -687,24 -483,3 -609,7 -617,17 -8,9 -10,169 -9,527 l 3,514 29,5 c 42,7 3372,4 3391,-4 z m -9360,-716 c 84,-48 147,-125 173,-213 27,-91 27,-113 0,-205 -18,-59 -33,-85 -76,-132 -29,-33 -77,-72 -105,-87 -48,-26 -61,-28 -162,-28 -98,1 -114,3 -150,25 -106,63 -147,111 -186,215 -48,128 0,299 108,382 94,72 134,84 261,78 70,-3 91,-9 137,-35 z m 1196,30 c 18,-10 19,-25 19,-343 0,-246 -3,-336 -12,-345 -9,-9 -71,-12 -215,-12 -173,0 -205,2 -209,15 -4,9 4,43 17,78 23,58 24,75 23,267 0,188 -2,209 -22,259 -39,92 -41,91 184,91 116,0 203,-4 215,-10 z m 9244,-9 c 3,-10 -4,-43 -17,-72 -20,-50 -22,-70 -22,-259 -1,-192 1,-209 23,-267 13,-35 21,-69 17,-78 -4,-13 -35,-15 -201,-15 -116,0 -204,4 -216,10 -18,10 -19,25 -19,345 0,308 1,335 18,344 10,6 99,11 214,11 184,0 197,-1 203,-19 z m 1098,-12 c 203,-105 266,-336 145,-525 -30,-46 -81,-90 -148,-125 -39,-21 -58,-24 -150,-24 -95,0 -110,3 -157,28 -77,41 -151,128 -179,213 -30,86 -30,119 -2,211 17,57 33,86 70,127 54,61 123,105 183,117 68,13 193,2 238,-22 z m -4463,-998 c 95,-12 239,-67 294,-112 67,-54 97,-85 147,-147 33,-40 59,-78 59,-84 0,-6 6,-19 14,-27 8,-9 27,-52 42,-96 26,-73 28,-92 28,-220 0,-150 -11,-202 -72,-320 -50,-99 -175,-234 -256,-277 -102,-53 -149,-70 -252,-88 -109,-19 -160,-20 -1467,-20 -1309,0 -1358,1 -1469,20 -121,21 -253,73 -301,120 -8,8 -32,29 -52,45 -41,33 -120,130 -153,188 -12,20 -34,72 -49,115 -24,70 -27,90 -27,217 0,127 3,147 27,217 33,93 55,133 119,214 120,153 269,236 464,257 147,16 2779,14 2904,-2 z M 4625,6849 c 6,-4 28,-14 50,-22 22,-8 72,-27 110,-42 39,-14 93,-32 120,-40 28,-7 64,-18 80,-23 42,-15 183,-50 228,-58 20,-3 40,-11 44,-17 10,-16 11,-451 1,-477 -6,-17 -13,-21 -31,-15 -170,51 -361,68 -467,41 -30,-7 -86,-19 -124,-26 -64,-12 -70,-11 -83,5 -10,15 -13,88 -13,347 v 329 l 23,8 c 22,8 43,5 62,-10 z m 4722,-326 c 2,-263 -1,-334 -11,-349 -13,-17 -18,-17 -142,9 -80,17 -160,27 -211,27 -78,0 -244,-28 -306,-52 -20,-8 -31,-8 -39,0 -14,14 -14,480 -1,492 4,4 31,12 58,18 87,17 189,43 225,57 19,7 73,25 120,39 84,26 147,51 224,86 25,12 46,16 60,10 21,-7 21,-12 23,-337 z M 5054,5531 c 79,-37 138,-96 176,-177 26,-55 30,-75 30,-148 0,-67 -5,-94 -24,-136 -31,-67 -101,-149 -142,-166 -18,-8 -35,-18 -38,-23 -10,-16 -137,-32 -195,-26 -140,17 -261,120 -295,253 -19,71 -20,112 -5,184 21,99 95,191 194,239 52,25 71,29 149,29 78,0 97,-4 150,-29 z m 4081,0 c 127,-61 204,-184 205,-325 1,-173 -136,-329 -307,-350 -60,-7 -180,9 -203,28 -8,7 -27,17 -41,23 -31,13 -113,108 -124,143 -4,14 -14,34 -21,45 -9,13 -14,49 -14,107 0,77 4,96 30,152 38,80 97,139 175,177 52,25 71,29 150,29 79,0 98,-4 150,-29 z M 5581,3179 c 18,-9 19,-28 19,-347 0,-250 -3,-341 -12,-350 -9,-9 -228,-12 -924,-12 -792,0 -913,2 -924,15 -10,12 -1,36 47,132 128,253 223,436 232,447 5,6 12,23 16,37 4,14 19,40 35,57 l 29,32 732,-1 c 467,0 738,-3 750,-10 z m 4230,-10 c 12,-12 30,-40 41,-63 10,-22 57,-113 103,-201 181,-348 208,-405 195,-420 -11,-13 -135,-15 -924,-15 -696,0 -915,3 -924,12 -9,9 -12,100 -12,350 0,310 1,338 18,347 11,7 268,10 750,10 726,0 733,0 753,-20 z"
       id="path1" />
    <path
       d="m 7530,17714 c -77,-66 -81,-163 -8,-231 24,-22 157,-63 205,-63 13,0 79,-11 146,-24 67,-13 181,-34 252,-46 72,-12 163,-28 204,-36 108,-21 162,-18 201,9 91,61 90,181 -1,249 -23,17 -136,41 -459,98 -69,12 -181,33 -249,46 -68,13 -155,24 -192,24 -58,0 -72,-4 -99,-26 z"
       id="path2" />
    <path
       d="m 6180,17679 c -58,-4 -193,-12 -300,-19 -275,-16 -454,-29 -490,-37 -18,-3 -46,-20 -65,-37 -64,-61 -65,-151 -1,-215 53,-53 53,-53 776,-5 142,9 241,20 267,30 95,34 125,148 62,228 -43,55 -92,66 -249,55 z"
       id="path3" />
    <path
       d="m 5838,17073 c -14,-2 -32,-11 -38,-19 -7,-8 -18,-14 -25,-14 -20,0 -84,-55 -112,-97 -47,-69 -63,-156 -63,-352 0,-143 4,-189 19,-243 36,-126 110,-198 240,-234 61,-17 66,-17 134,0 111,29 182,90 228,196 23,53 24,64 24,290 -1,232 -1,236 -27,290 -54,115 -154,182 -278,186 -41,1 -87,0 -102,-3 z"
       id="path4" />
    <path
       d="m 7880,17071 c -88,-29 -181,-108 -201,-170 -6,-20 -17,-42 -23,-50 -7,-9 -11,-91 -11,-250 0,-226 1,-238 24,-290 47,-110 114,-167 228,-197 68,-17 73,-17 134,0 130,36 204,108 240,234 15,54 19,100 19,243 0,284 -35,372 -185,458 -30,18 -59,24 -120,27 -44,2 -91,0 -105,-5 z"
       id="path5" />
    <path
       d="m 7595,15433 c -142,-86 -383,-200 -483,-228 l -103,-29 -277,17 c -303,18 -346,26 -489,88 -82,36 -93,44 -103,75 -15,43 -44,64 -92,64 -56,0 -82,-30 -75,-87 13,-116 177,-215 487,-294 202,-51 296,-62 525,-62 196,0 217,1 315,27 146,38 224,82 343,195 107,103 127,132 127,185 0,26 -7,40 -31,60 -41,35 -73,33 -144,-11 z"
       id="path6" />
  </g>
</svg>
