<?xml version="1.0" encoding="UTF-8" standalone="no"?>
<svg
   version="1.0"
   width="1348.7139pt"
   height="1962.563pt"
   viewBox="0 0 1348.7139 1962.563"
   preserveAspectRatio="xMidYMid"
   id="svg6"
   sodipodi:docname="listening.svg"
   inkscape:version="1.3 (0e150ed, 2023-07-21)"
   xmlns:inkscape="http://www.inkscape.org/namespaces/inkscape"
   xmlns:sodipodi="http://sodipodi.sourceforge.net/DTD/sodipodi-0.dtd"
   xmlns="http://www.w3.org/2000/svg"
   xmlns:svg="http://www.w3.org/2000/svg">
  <defs
     id="defs6" />
  <sodipodi:namedview
     id="namedview6"
     pagecolor="#ffffff"
     bordercolor="#000000"
     borderopacity="0.25"
     inkscape:showpageshadow="2"
     inkscape:pageopacity="0.0"
     inkscape:pagecheckerboard="0"
     inkscape:deskcolor="#d1d1d1"
     inkscape:document-units="pt"
     inkscape:zoom="0.078111209"
     inkscape:cx="966.57062"
     inkscape:cy="1357.0395"
     inkscape:window-width="1312"
     inkscape:window-height="449"
     inkscape:window-x="0"
     inkscape:window-y="25"
     inkscape:window-maximized="0"
     inkscape:current-layer="svg6" />
  <g
     transform="matrix(0.1,0,0,-0.1,-20.143067,2146.063)"
     fill="#000000"
     stroke="none"
     id="g6">
    <path
       d="m 5210,21454 c -19,-7 -69,-13 -110,-13 -55,-1 -85,-6 -113,-21 -20,-11 -50,-20 -66,-20 -15,0 -40,-9 -54,-20 -14,-11 -34,-20 -46,-20 -11,0 -25,-9 -31,-20 -6,-12 -21,-20 -35,-20 -17,0 -61,-36 -160,-133 -74,-72 -135,-137 -135,-143 0,-7 -6,-14 -14,-17 -8,-3 -17,-19 -21,-35 -3,-17 -15,-38 -26,-48 -10,-9 -19,-27 -19,-38 0,-12 -9,-29 -20,-39 -14,-12 -20,-29 -20,-59 0,-25 -7,-49 -17,-61 -16,-17 -18,-44 -18,-246 0,-199 2,-229 18,-251 9,-13 17,-34 17,-45 0,-11 9,-37 20,-58 11,-20 20,-46 20,-56 0,-11 8,-27 17,-37 19,-18 24,-27 60,-90 29,-52 217,-244 240,-244 4,0 34,-18 66,-40 31,-22 63,-40 70,-40 6,0 26,-7 42,-16 17,-9 42,-23 58,-31 l 27,-14 v -573 -573 l -30,-32 c -17,-17 -33,-31 -36,-31 -3,0 -25,-20 -49,-44 -23,-24 -61,-56 -84,-71 -55,-34 -324,-306 -363,-367 -17,-26 -37,-49 -44,-52 -8,-3 -14,-12 -14,-20 0,-7 -6,-16 -13,-19 -8,-3 -28,-27 -45,-54 -43,-64 -61,-89 -89,-119 -13,-14 -33,-44 -44,-67 -12,-23 -28,-46 -35,-50 -8,-4 -14,-16 -14,-27 0,-10 -11,-32 -25,-48 -14,-17 -25,-34 -25,-39 0,-4 -18,-35 -40,-68 -22,-33 -40,-66 -40,-73 0,-8 -9,-25 -20,-39 -11,-14 -20,-34 -20,-45 0,-10 -8,-36 -19,-56 -10,-20 -28,-57 -39,-82 -11,-25 -29,-66 -41,-91 -12,-25 -21,-55 -21,-65 -1,-10 -9,-37 -20,-59 -11,-22 -20,-51 -20,-65 0,-14 -9,-43 -20,-65 -11,-22 -20,-49 -20,-60 -1,-11 -8,-38 -16,-60 -8,-22 -19,-76 -25,-119 -5,-44 -15,-88 -20,-98 -6,-10 -17,-74 -24,-141 -8,-67 -19,-151 -25,-187 -6,-38 -13,-471 -18,-1042 -4,-537 -11,-980 -15,-985 -5,-4 -187,-10 -405,-14 -371,-5 -399,-6 -432,-25 -44,-25 -130,-108 -130,-126 0,-7 -8,-25 -17,-38 -16,-22 -18,-55 -21,-243 -3,-211 -4,-217 -25,-229 -16,-9 -214,-14 -742,-19 -396,-4 -751,-10 -790,-14 -118,-12 -275,-74 -404,-161 -24,-16 -51,-33 -60,-39 -78,-49 -281,-331 -281,-391 0,-8 -9,-31 -20,-51 -11,-21 -20,-50 -20,-66 0,-15 -7,-44 -16,-65 -25,-57 -31,-254 -9,-312 9,-25 21,-67 26,-95 5,-27 18,-68 29,-90 11,-21 20,-47 20,-56 0,-9 7,-22 15,-29 8,-6 17,-21 21,-33 6,-19 49,-84 98,-150 45,-59 86,-99 152,-148 38,-28 73,-57 77,-65 4,-8 16,-14 25,-14 9,0 31,-9 47,-20 17,-11 40,-20 52,-20 12,0 27,-9 33,-19 5,-11 24,-22 41,-26 19,-4 34,-16 40,-32 5,-15 9,-596 9,-1482 V 8463 l -22,-20 C 865,8431 739,8363 598,8292 393,8189 330,8152 290,8114 c -27,-27 -50,-58 -50,-68 0,-11 -8,-28 -18,-39 -16,-18 -17,-60 -17,-581 v -561 l 24,-55 c 28,-65 134,-170 173,-170 7,0 24,-9 38,-20 14,-11 32,-20 40,-20 8,0 26,-9 40,-20 14,-11 32,-20 40,-20 8,0 26,-9 40,-20 14,-11 30,-20 35,-20 8,0 248,-118 305,-149 8,-5 42,-21 75,-36 33,-15 72,-33 87,-41 37,-20 92,-17 135,6 21,11 45,20 53,20 9,0 44,30 78,66 l 62,66 v 109 c 0,105 -1,111 -29,150 -16,22 -47,53 -68,69 -21,16 -50,38 -65,49 -14,12 -35,21 -46,21 -12,0 -23,4 -27,9 -3,5 -76,44 -163,86 -86,42 -164,81 -172,86 -8,5 -30,16 -47,24 l -33,15 v 338 c 0,185 4,343 9,350 9,14 278,152 296,152 7,0 20,9 30,20 23,26 70,26 102,0 14,-11 33,-20 42,-20 9,0 27,-9 41,-20 14,-11 32,-20 40,-20 8,0 26,-9 40,-20 14,-11 32,-20 40,-20 8,0 26,-9 40,-20 14,-11 35,-20 47,-20 43,0 48,-28 54,-320 4,-231 8,-280 22,-305 9,-16 17,-36 17,-43 0,-21 90,-105 140,-129 54,-27 160,-31 200,-8 14,8 34,18 45,24 27,12 105,97 105,114 0,7 8,24 18,37 15,23 17,60 17,430 v 405 l -28,47 c -45,76 -117,132 -245,193 -65,31 -124,60 -132,65 -8,6 -26,15 -40,21 -14,6 -32,15 -40,20 -8,5 -26,14 -40,20 -14,6 -32,15 -40,20 -8,5 -29,16 -47,24 -18,8 -41,25 -53,37 -20,22 -20,25 -20,1463 v 1442 l 23,21 23,22 h 530 c 315,0 535,-4 544,-10 13,-8 16,-114 20,-817 4,-668 8,-812 19,-833 10,-16 17,-75 21,-170 5,-114 10,-151 23,-170 13,-18 17,-45 17,-106 0,-64 4,-86 18,-105 11,-13 22,-46 25,-72 4,-27 14,-58 22,-70 8,-12 15,-30 15,-41 0,-24 46,-168 71,-222 10,-23 19,-47 19,-54 0,-6 9,-23 20,-37 11,-14 20,-34 20,-43 0,-10 6,-23 14,-29 8,-7 17,-24 21,-39 10,-40 94,-208 110,-222 8,-7 15,-23 15,-37 0,-13 7,-26 15,-30 9,-3 22,-20 31,-37 21,-44 38,-73 56,-93 9,-10 18,-27 22,-39 3,-11 22,-37 41,-58 19,-21 48,-58 64,-83 32,-48 76,-103 152,-187 180,-201 235,-259 258,-274 14,-9 34,-23 43,-31 9,-9 38,-34 64,-56 26,-22 70,-62 98,-90 l 51,-50 5,-1065 c 5,-978 7,-1068 23,-1102 11,-24 17,-62 17,-106 0,-54 4,-75 20,-95 11,-14 20,-30 20,-36 0,-19 92,-199 107,-210 17,-12 103,-130 103,-140 0,-6 4,-11 9,-11 12,0 145,-99 154,-116 4,-8 16,-14 26,-14 10,0 30,-9 44,-20 14,-11 29,-20 34,-20 6,0 37,-14 71,-30 l 61,-31 6,-53 c 12,-92 2,-423 -13,-438 -10,-10 -105,-14 -423,-18 -376,-5 -412,-6 -423,-22 -7,-10 -17,-18 -23,-18 -11,0 -72,-64 -102,-107 -32,-47 -81,-143 -81,-159 0,-7 -9,-18 -20,-24 -13,-7 -20,-21 -20,-40 0,-19 -7,-33 -20,-40 -13,-7 -20,-21 -20,-40 0,-19 -7,-33 -20,-40 -13,-7 -20,-21 -20,-40 0,-19 -7,-33 -20,-40 -13,-7 -20,-21 -20,-41 0,-17 -6,-32 -15,-35 -8,-3 -19,-22 -26,-42 -6,-21 -17,-44 -24,-52 -7,-8 -16,-26 -20,-40 -4,-14 -12,-31 -18,-38 -11,-14 -40,-66 -57,-102 -7,-14 -16,-32 -21,-40 -4,-8 -32,-62 -61,-120 -28,-58 -60,-116 -70,-129 -10,-13 -18,-30 -18,-37 0,-7 -13,-33 -30,-57 l -29,-44 -111,-7 c -82,-5 -120,-12 -150,-27 -45,-24 -130,-105 -130,-125 0,-8 -9,-28 -20,-46 -26,-42 -26,-103 0,-151 11,-20 20,-42 20,-48 0,-42 122,-139 175,-139 15,0 37,-11 53,-27 l 27,-28 h 1520 1520 l 27,28 c 21,21 37,27 68,27 38,0 47,6 111,71 l 69,71 v 779 c 0,647 -2,785 -14,813 -18,44 -72,101 -122,129 -38,21 -50,22 -436,27 -218,3 -400,9 -405,13 -12,13 -16,457 -4,490 6,16 18,27 29,27 11,0 31,9 45,20 14,11 37,20 51,20 14,0 30,8 35,18 5,9 31,28 58,42 61,32 273,239 273,267 0,11 9,28 20,38 11,10 20,24 20,30 0,7 6,18 14,24 8,7 18,26 22,43 3,17 15,45 25,62 11,17 19,50 19,73 0,30 5,45 18,52 16,9 17,59 20,798 l 3,788 27,28 26,27 h 1031 1031 l 26,-27 27,-28 3,-788 c 3,-739 4,-789 21,-798 12,-7 17,-22 17,-52 0,-23 8,-56 19,-73 10,-17 22,-45 25,-62 4,-17 14,-36 22,-43 8,-6 14,-17 14,-24 0,-6 9,-20 20,-30 11,-10 20,-27 20,-38 0,-28 212,-235 273,-267 27,-14 53,-33 58,-42 5,-10 21,-18 35,-18 14,0 37,-9 51,-20 14,-11 34,-20 45,-20 11,0 23,-11 29,-27 12,-33 8,-477 -4,-490 -5,-4 -187,-10 -405,-13 -386,-5 -398,-6 -436,-27 -50,-28 -104,-85 -122,-129 -12,-28 -14,-166 -14,-813 v -779 l 69,-71 c 64,-65 73,-71 111,-71 31,0 47,-6 68,-27 l 27,-28 h 1520 1520 l 27,27 c 16,17 38,28 53,28 53,0 175,97 175,139 0,6 9,28 20,48 26,48 26,109 0,151 -11,18 -20,38 -20,46 0,20 -85,101 -130,125 -30,15 -68,22 -150,27 l -111,7 -29,44 c -17,24 -30,50 -30,57 0,7 -8,24 -18,37 -10,13 -42,71 -70,129 -29,58 -57,112 -61,120 -5,8 -14,26 -21,40 -17,36 -46,88 -57,102 -6,7 -14,24 -18,38 -4,14 -13,32 -20,40 -7,8 -18,31 -24,52 -7,20 -18,39 -26,42 -9,3 -15,18 -15,35 0,20 -7,34 -20,41 -13,7 -20,21 -20,40 0,19 -7,33 -20,40 -13,7 -20,21 -20,40 0,19 -7,33 -20,40 -13,7 -20,21 -20,40 0,19 -7,33 -20,40 -11,6 -20,17 -20,24 0,16 -49,112 -81,159 -30,43 -91,107 -102,107 -6,0 -16,8 -23,17 -11,17 -47,18 -423,23 -317,4 -413,8 -423,18 -17,17 -25,451 -8,481 6,12 23,24 38,27 15,4 38,15 51,26 13,10 30,18 38,18 8,0 26,9 40,20 14,11 34,20 44,20 10,0 22,6 26,14 9,17 142,116 154,116 5,0 9,5 9,11 0,11 85,126 107,144 17,15 103,187 103,207 0,10 9,27 20,38 16,16 20,33 20,90 0,46 6,84 17,108 16,34 18,124 23,1102 l 5,1065 51,50 c 28,28 72,68 98,90 26,22 55,47 64,56 9,8 29,23 44,32 22,14 143,143 296,316 12,14 33,38 46,52 13,14 40,51 60,82 20,31 52,72 71,93 19,21 38,47 41,58 4,12 13,29 22,39 18,20 35,49 56,93 9,17 22,34 31,37 8,4 15,17 15,30 0,14 7,30 15,37 16,14 100,182 110,222 4,15 13,32 21,39 8,6 14,19 14,29 0,9 9,29 20,43 11,14 20,31 20,37 0,7 9,31 19,54 25,54 71,198 71,222 0,11 7,29 15,41 8,12 18,43 22,70 3,26 14,59 25,72 14,19 18,41 18,105 0,61 4,88 17,106 13,19 18,56 23,170 4,95 11,154 21,170 11,21 15,165 19,833 4,703 7,809 20,817 9,6 229,10 546,10 h 531 l 21,-23 22,-23 V 9904 c 0,-1437 0,-1440 -20,-1462 -12,-12 -35,-29 -53,-37 -18,-8 -39,-19 -47,-24 -8,-5 -26,-14 -40,-20 -14,-6 -32,-15 -40,-20 -8,-5 -26,-14 -40,-20 -14,-6 -32,-15 -40,-21 -8,-5 -67,-34 -132,-65 -128,-61 -200,-117 -245,-193 l -28,-47 v -405 c 0,-370 2,-407 18,-430 9,-13 17,-30 17,-37 0,-17 78,-102 105,-114 11,-6 31,-16 45,-24 40,-23 146,-19 200,8 50,24 140,108 140,129 0,7 8,27 17,43 14,25 18,74 22,305 6,292 11,320 54,320 12,0 33,9 47,20 14,11 32,20 40,20 8,0 26,9 40,20 14,11 32,20 41,20 9,0 28,9 42,20 14,11 32,20 40,20 8,0 26,9 40,20 32,26 79,26 102,0 10,-11 28,-20 41,-20 13,0 25,-4 29,-10 3,-5 61,-36 129,-70 68,-33 127,-67 130,-76 3,-9 6,-166 6,-350 v -334 l -32,-15 c -18,-8 -40,-19 -48,-24 -8,-5 -86,-44 -172,-86 -87,-42 -160,-81 -163,-86 -4,-5 -15,-9 -27,-9 -11,0 -32,-9 -46,-21 -15,-11 -44,-33 -65,-49 -21,-16 -52,-47 -68,-69 -28,-39 -29,-45 -29,-150 v -109 l 62,-66 c 34,-36 69,-66 78,-66 8,0 32,-9 53,-20 43,-23 98,-26 135,-6 15,8 54,26 87,41 33,15 67,31 75,36 57,31 297,149 305,149 6,0 21,9 35,20 14,11 32,20 40,20 8,0 26,9 40,20 14,11 32,20 40,20 8,0 26,9 40,20 14,11 31,20 38,20 39,0 145,105 173,170 l 24,55 v 561 c 0,521 -1,563 -17,581 -10,11 -18,28 -18,39 0,10 -23,41 -50,68 -40,38 -103,75 -308,178 -141,71 -267,139 -279,151 l -23,20 1,1456 c 1,801 4,1467 8,1480 4,16 18,28 40,36 18,6 37,18 42,28 6,9 20,17 32,17 12,0 36,9 52,20 17,11 38,20 47,20 9,0 21,6 25,14 4,8 39,37 77,65 66,49 107,89 152,148 49,66 92,131 98,150 4,12 13,27 21,33 8,7 15,20 15,29 0,9 9,35 20,56 11,22 24,63 29,90 5,28 17,70 26,95 22,58 16,255 -9,312 -9,21 -16,50 -16,65 0,16 -9,45 -20,66 -11,20 -20,43 -20,51 0,58 -236,386 -277,386 -5,0 -25,13 -45,30 -45,37 -219,130 -245,130 -10,0 -35,9 -56,20 -52,28 -106,30 -922,39 -522,5 -716,10 -732,19 -21,12 -22,18 -25,231 -3,192 -5,221 -20,238 -10,11 -18,27 -18,37 0,21 -81,103 -130,130 -33,19 -61,20 -432,25 -218,4 -400,10 -405,14 -4,5 -11,448 -15,985 -5,571 -12,1004 -18,1042 -6,36 -17,120 -25,187 -7,67 -18,131 -24,141 -5,10 -15,54 -20,98 -6,43 -17,97 -25,119 -8,22 -15,49 -16,60 0,11 -9,38 -20,60 -11,22 -20,51 -20,65 0,14 -9,43 -20,65 -11,22 -19,52 -20,66 0,15 -9,38 -20,52 -11,14 -20,33 -20,42 0,9 -9,34 -20,56 -11,21 -29,57 -40,78 -11,22 -20,49 -20,59 0,11 -9,31 -20,45 -11,14 -20,31 -20,39 0,7 -18,40 -40,73 -22,33 -40,64 -40,68 0,5 -11,22 -25,39 -14,16 -25,37 -25,47 0,10 -9,26 -21,37 -12,10 -30,37 -41,59 -11,22 -28,47 -37,56 -24,25 -42,49 -84,112 -20,31 -42,57 -47,57 -6,0 -10,7 -10,15 0,9 -6,18 -14,21 -7,3 -27,26 -44,52 -38,59 -308,333 -361,366 -22,14 -53,38 -69,53 -16,16 -53,50 -81,76 l -51,48 v 574 574 l 28,14 c 15,8 41,22 57,31 17,9 36,16 42,16 7,0 39,18 70,40 32,22 62,40 66,40 24,0 211,192 243,249 33,59 39,67 57,85 9,10 17,26 17,37 0,10 9,36 20,56 11,21 20,47 20,58 0,11 8,32 18,45 15,22 17,52 17,251 0,202 -2,229 -17,246 -11,12 -18,36 -18,61 0,30 -6,47 -20,59 -11,10 -20,27 -20,39 0,11 -9,29 -19,38 -11,10 -23,31 -26,48 -4,16 -13,32 -21,35 -8,3 -14,10 -14,17 0,6 -61,71 -135,143 -99,97 -143,133 -160,133 -14,0 -29,8 -35,20 -6,11 -20,20 -31,20 -12,0 -32,9 -46,20 -14,11 -39,20 -54,20 -16,0 -46,9 -66,20 -28,15 -57,20 -113,20 -41,1 -91,6 -110,13 -28,10 -42,10 -70,0 -19,-6 -69,-12 -110,-12 -55,-1 -85,-6 -113,-21 -20,-11 -50,-20 -66,-20 -15,0 -40,-9 -54,-20 -14,-11 -34,-20 -46,-20 -11,0 -25,-9 -31,-20 -6,-11 -21,-20 -33,-20 -36,0 -297,-245 -297,-279 0,-5 -6,-11 -14,-14 -8,-3 -17,-19 -21,-35 -3,-17 -15,-38 -26,-48 -10,-9 -19,-27 -19,-38 0,-12 -9,-29 -20,-39 -14,-12 -20,-29 -20,-59 0,-25 -7,-49 -17,-61 -16,-17 -18,-44 -18,-252 0,-208 2,-235 18,-252 9,-11 17,-33 17,-50 0,-17 9,-42 20,-56 11,-14 20,-35 20,-46 0,-12 8,-29 18,-39 19,-21 34,-42 61,-92 24,-43 218,-235 247,-244 12,-4 29,-15 39,-26 10,-11 24,-20 30,-20 7,0 18,-6 24,-14 7,-8 27,-18 44,-21 18,-4 39,-13 47,-20 8,-8 28,-18 43,-24 l 28,-11 -3,-380 c -3,-340 -5,-381 -20,-396 -15,-16 -19,-16 -51,0 -19,9 -44,16 -54,16 -11,0 -30,9 -43,20 -14,12 -37,20 -61,20 -28,0 -41,5 -49,20 -8,14 -21,20 -45,20 -19,0 -52,9 -72,20 -21,11 -50,20 -65,20 -16,0 -45,9 -65,20 -21,11 -56,20 -78,20 -22,0 -53,7 -70,16 -16,9 -69,19 -117,23 -48,5 -94,14 -103,21 -43,36 -997,36 -1040,0 -9,-7 -55,-16 -103,-21 -48,-4 -100,-14 -117,-23 -16,-9 -48,-16 -70,-16 -22,0 -57,-9 -78,-20 -20,-11 -49,-20 -65,-20 -15,0 -44,-9 -65,-20 -20,-11 -53,-20 -72,-20 -23,0 -37,-6 -44,-19 -7,-12 -25,-20 -56,-23 -25,-3 -54,-13 -64,-22 -10,-9 -26,-16 -35,-16 -10,0 -34,-7 -53,-16 -32,-16 -36,-16 -51,0 -15,15 -17,56 -20,396 l -3,380 28,11 c 15,6 35,16 43,24 8,7 29,16 47,20 17,3 37,13 44,21 6,8 17,14 24,14 6,0 20,9 30,20 10,11 27,22 39,26 29,9 223,201 247,244 27,50 42,71 62,92 9,10 17,27 17,39 0,11 9,32 20,46 11,14 20,39 20,56 0,17 8,39 18,50 15,17 17,44 17,252 0,208 -2,235 -17,252 -11,12 -18,36 -18,61 0,30 -6,47 -20,59 -11,10 -20,27 -20,39 0,11 -9,29 -19,38 -11,10 -22,30 -26,44 -4,15 -14,34 -23,43 -9,9 -28,32 -42,50 -62,83 -236,239 -267,239 -12,0 -27,9 -33,20 -6,11 -20,20 -31,20 -12,0 -32,9 -46,20 -14,11 -39,20 -54,20 -16,0 -46,9 -66,20 -29,15 -57,20 -116,20 -43,0 -92,6 -110,13 -26,10 -39,10 -67,1 z m 97,-604 c 113,-19 201,-83 259,-190 27,-49 29,-62 29,-155 0,-92 -3,-107 -29,-158 -38,-75 -92,-130 -165,-167 -54,-27 -70,-30 -153,-30 -82,0 -100,4 -153,29 -74,35 -134,93 -171,168 -26,51 -29,66 -28,157 0,89 3,107 26,151 66,124 163,187 313,204 6,0 38,-4 72,-9 z m 3407,-1 c 110,-20 198,-87 254,-194 23,-44 26,-62 26,-151 1,-91 -2,-106 -28,-157 -37,-74 -95,-131 -169,-168 -53,-26 -69,-29 -153,-29 -85,0 -100,3 -155,30 -71,36 -130,94 -166,164 -24,45 -27,63 -27,157 -1,98 1,109 28,160 67,123 167,186 317,198 8,0 41,-4 73,-10 z M 7125,18471 c 94,-5 206,-16 250,-25 44,-8 103,-19 130,-24 102,-19 259,-63 365,-104 30,-11 73,-27 95,-36 42,-16 203,-89 270,-124 66,-34 259,-157 314,-199 14,-11 52,-40 84,-64 120,-90 380,-348 460,-456 9,-13 34,-46 55,-74 76,-101 174,-258 225,-360 46,-92 105,-220 115,-250 6,-16 23,-61 37,-100 29,-77 57,-173 80,-277 8,-37 19,-77 24,-90 5,-13 12,-55 16,-93 4,-39 13,-110 21,-160 18,-115 31,-609 17,-627 -7,-9 -8,-140 -2,-413 12,-620 11,-928 -3,-948 -12,-16 -187,-17 -2733,-17 -2547,0 -2721,1 -2732,17 -18,23 -19,668 -1,679 8,5 9,91 2,343 -13,482 -10,823 9,956 9,61 18,137 22,170 3,33 12,83 20,110 7,28 23,85 34,127 12,43 21,85 21,93 0,9 8,37 19,63 10,26 31,81 46,122 31,85 62,158 76,180 5,8 12,22 15,30 21,61 149,281 227,391 21,30 50,70 63,89 105,148 353,389 575,559 52,40 245,163 304,194 56,29 240,114 280,129 126,48 156,59 210,76 69,23 177,50 250,63 28,6 86,17 130,26 68,13 238,27 400,31 22,0 117,-3 210,-7 z m -517,-5095 c 18,-11 17,-1029 -1,-1044 -8,-7 -208,-12 -612,-14 -644,-4 -662,-5 -797,-59 -26,-10 -55,-19 -65,-19 -15,0 -135,-57 -254,-120 -15,-8 -72,-51 -126,-94 -99,-81 -175,-161 -258,-271 -54,-73 -160,-283 -174,-345 -6,-25 -17,-61 -25,-80 -13,-32 -24,-102 -45,-280 -4,-36 -4,-94 0,-130 22,-183 32,-248 45,-280 8,-19 19,-54 25,-78 9,-41 72,-178 124,-271 76,-135 298,-362 423,-432 154,-87 253,-130 382,-165 30,-8 71,-20 90,-26 23,-7 251,-12 645,-15 397,-3 614,-8 623,-15 9,-8 12,-260 12,-1198 0,-1050 -2,-1189 -15,-1200 -12,-10 -117,-12 -493,-8 -497,6 -506,6 -762,57 -83,17 -289,76 -335,96 -16,7 -66,27 -110,43 -44,17 -93,38 -110,46 -16,9 -35,16 -41,16 -6,0 -17,6 -23,14 -7,8 -22,17 -34,20 -22,5 -103,49 -162,86 -16,11 -46,29 -65,40 -77,45 -114,72 -263,189 -118,92 -387,364 -437,441 -8,12 -33,46 -55,74 -40,50 -65,86 -95,137 -8,14 -32,54 -53,90 -21,35 -42,71 -47,79 -22,34 -140,288 -140,301 -1,8 -9,32 -20,54 -11,22 -20,47 -20,55 0,8 -9,33 -20,55 -11,22 -19,50 -20,62 0,12 -7,44 -16,70 -22,65 -53,210 -65,308 -36,286 -37,338 -36,2090 l 2,1720 29,5 c 48,8 3380,5 3394,-4 z m 4087,0 c 14,-5 15,-175 12,-1788 -3,-1723 -4,-1788 -24,-1943 -21,-167 -41,-265 -74,-375 -10,-36 -19,-74 -19,-85 -1,-11 -9,-38 -20,-60 -11,-22 -20,-47 -20,-55 0,-8 -9,-33 -20,-55 -11,-22 -19,-46 -20,-54 0,-16 -98,-223 -159,-336 -9,-16 -31,-52 -49,-78 -17,-26 -32,-51 -32,-54 0,-10 -49,-81 -91,-133 -20,-25 -49,-63 -63,-85 -70,-103 -381,-408 -500,-490 -28,-20 -76,-53 -106,-75 -30,-23 -71,-50 -90,-61 -19,-11 -48,-28 -65,-39 -59,-37 -140,-81 -162,-86 -12,-3 -27,-12 -34,-20 -6,-8 -17,-14 -23,-14 -6,0 -24,-7 -41,-16 -103,-53 -415,-157 -555,-184 -277,-54 -261,-53 -762,-58 -375,-4 -481,-2 -493,8 -13,11 -15,150 -15,1200 0,938 3,1190 13,1198 8,7 224,12 622,15 397,3 622,8 645,15 19,6 60,18 90,26 191,52 367,140 497,248 130,109 267,270 330,390 18,33 37,66 41,72 9,12 49,119 80,216 31,94 61,349 51,430 -22,186 -32,248 -45,280 -8,19 -19,54 -25,78 -9,41 -68,170 -124,272 -27,48 -110,156 -175,226 -44,48 -222,195 -261,215 -134,70 -237,119 -252,119 -10,0 -34,7 -55,16 -20,9 -73,25 -117,37 -76,19 -114,21 -687,24 -483,3 -609,7 -617,17 -8,9 -10,169 -9,527 l 3,514 29,5 c 42,7 3372,4 3391,-4 z m -9360,-716 c 84,-48 147,-125 173,-213 27,-91 27,-113 0,-205 -18,-59 -33,-85 -76,-132 -29,-33 -77,-72 -105,-87 -48,-26 -61,-28 -162,-28 -98,1 -114,3 -150,25 -106,63 -147,111 -186,215 -48,128 0,299 108,382 94,72 134,84 261,78 70,-3 91,-9 137,-35 z m 1196,30 c 18,-10 19,-25 19,-343 0,-246 -3,-336 -12,-345 -9,-9 -71,-12 -215,-12 -173,0 -205,2 -209,15 -4,9 4,43 17,78 23,58 24,75 23,267 0,188 -2,209 -22,259 -39,92 -41,91 184,91 116,0 203,-4 215,-10 z m 9244,-9 c 3,-10 -4,-43 -17,-72 -20,-50 -22,-70 -22,-259 -1,-192 1,-209 23,-267 13,-35 21,-69 17,-78 -4,-13 -35,-15 -201,-15 -116,0 -204,4 -216,10 -18,10 -19,25 -19,345 0,308 1,335 18,344 10,6 99,11 214,11 184,0 197,-1 203,-19 z m 1098,-12 c 203,-105 266,-336 145,-525 -30,-46 -81,-90 -148,-125 -39,-21 -58,-24 -150,-24 -95,0 -110,3 -157,28 -77,41 -151,128 -179,213 -30,86 -30,119 -2,211 17,57 33,86 70,127 54,61 123,105 183,117 68,13 193,2 238,-22 z m -4463,-998 c 95,-12 239,-67 294,-112 67,-54 97,-85 147,-147 33,-40 59,-78 59,-84 0,-6 6,-19 14,-27 8,-9 27,-52 42,-96 26,-73 28,-92 28,-220 0,-150 -11,-202 -72,-320 -50,-99 -175,-234 -256,-277 -102,-53 -149,-70 -252,-88 -109,-19 -160,-20 -1467,-20 -1309,0 -1358,1 -1469,20 -121,21 -253,73 -301,120 -8,8 -32,29 -52,45 -41,33 -120,130 -153,188 -12,20 -34,72 -49,115 -24,70 -27,90 -27,217 0,127 3,147 27,217 33,93 55,133 119,214 120,153 269,236 464,257 147,16 2779,14 2904,-2 z M 4625,6849 c 6,-4 28,-14 50,-22 22,-8 72,-27 110,-42 39,-14 93,-32 120,-40 28,-7 64,-18 80,-23 42,-15 183,-50 228,-58 20,-3 40,-11 44,-17 10,-16 11,-451 1,-477 -6,-17 -13,-21 -31,-15 -170,51 -361,68 -467,41 -30,-7 -86,-19 -124,-26 -64,-12 -70,-11 -83,5 -10,15 -13,88 -13,347 v 329 l 23,8 c 22,8 43,5 62,-10 z m 4722,-326 c 2,-263 -1,-334 -11,-349 -13,-17 -18,-17 -142,9 -80,17 -160,27 -211,27 -78,0 -244,-28 -306,-52 -20,-8 -31,-8 -39,0 -14,14 -14,480 -1,492 4,4 31,12 58,18 87,17 189,43 225,57 19,7 73,25 120,39 84,26 147,51 224,86 25,12 46,16 60,10 21,-7 21,-12 23,-337 z M 5054,5531 c 79,-37 138,-96 176,-177 26,-55 30,-75 30,-148 0,-67 -5,-94 -24,-136 -31,-67 -101,-149 -142,-166 -18,-8 -35,-18 -38,-23 -10,-16 -137,-32 -195,-26 -140,17 -261,120 -295,253 -19,71 -20,112 -5,184 21,99 95,191 194,239 52,25 71,29 149,29 78,0 97,-4 150,-29 z m 4081,0 c 127,-61 204,-184 205,-325 1,-173 -136,-329 -307,-350 -60,-7 -180,9 -203,28 -8,7 -27,17 -41,23 -31,13 -113,108 -124,143 -4,14 -14,34 -21,45 -9,13 -14,49 -14,107 0,77 4,96 30,152 38,80 97,139 175,177 52,25 71,29 150,29 79,0 98,-4 150,-29 z M 5581,3179 c 18,-9 19,-28 19,-347 0,-250 -3,-341 -12,-350 -9,-9 -228,-12 -924,-12 -792,0 -913,2 -924,15 -10,12 -1,36 47,132 128,253 223,436 232,447 5,6 12,23 16,37 4,14 19,40 35,57 l 29,32 732,-1 c 467,0 738,-3 750,-10 z m 4230,-10 c 12,-12 30,-40 41,-63 10,-22 57,-113 103,-201 181,-348 208,-405 195,-420 -11,-13 -135,-15 -924,-15 -696,0 -915,3 -924,12 -9,9 -12,100 -12,350 0,310 1,338 18,347 11,7 268,10 750,10 726,0 733,0 753,-20 z"
       id="path1" />
    <path
       d="m 7960,18027 c -80,-16 -125,-35 -169,-73 -66,-55 -75,-131 -23,-187 48,-51 108,-53 187,-5 23,14 51,18 121,18 81,0 97,-3 151,-30 32,-16 86,-54 119,-83 71,-64 93,-77 134,-77 71,0 120,53 120,131 0,38 -6,47 -77,119 -88,87 -171,139 -270,170 -84,27 -207,34 -293,17 z"
       id="path2" />
    <path
       d="m 5564,17986 c -64,-16 -142,-56 -214,-109 -101,-76 -140,-130 -140,-194 0,-80 89,-143 160,-114 14,5 50,33 80,63 31,29 80,66 110,83 51,27 63,29 160,30 h 105 l 122,-62 c 67,-33 139,-64 161,-68 50,-8 104,13 129,51 23,35 23,102 1,135 -21,33 -302,173 -376,188 -70,14 -234,13 -298,-3 z"
       id="path3" />
    <path
       d="m 5838,17073 c -14,-2 -32,-11 -38,-19 -7,-8 -18,-14 -25,-14 -20,0 -84,-55 -112,-97 -47,-69 -63,-156 -63,-352 0,-143 4,-189 19,-243 36,-126 110,-198 240,-234 61,-17 66,-17 134,0 111,29 182,90 228,196 23,53 24,64 24,290 -1,232 -1,236 -27,290 -54,115 -154,182 -278,186 -41,1 -87,0 -102,-3 z"
       id="path4" />
    <path
       d="m 7880,17071 c -88,-29 -181,-108 -201,-170 -6,-20 -17,-42 -23,-50 -7,-9 -11,-91 -11,-250 0,-226 1,-238 24,-290 47,-110 114,-167 228,-197 68,-17 73,-17 134,0 130,36 204,108 240,234 15,54 19,100 19,243 0,284 -35,372 -185,458 -30,18 -59,24 -120,27 -44,2 -91,0 -105,-5 z"
       id="path5" />
    <path
       d="m 7359,15132 c -30,-16 -88,-50 -129,-76 -85,-53 -188,-89 -327,-113 -150,-27 -225,-6 -478,130 -49,27 -104,51 -121,54 -62,10 -134,-55 -134,-122 0,-73 50,-114 265,-220 182,-90 260,-109 400,-102 126,7 337,58 426,102 76,38 229,134 261,163 61,56 55,145 -11,189 -45,30 -88,29 -152,-5 z"
       id="path6" />
  </g>
</svg>
