<?xml version="1.0" encoding="UTF-8" standalone="no"?>
<svg
   version="1.0"
   width="1350.325pt"
   height="1966.4034pt"
   viewBox="0 0 1350.325 1966.4034"
   preserveAspectRatio="xMidYMid"
   id="svg4"
   sodipodi:docname="think1.svg"
   inkscape:version="1.3 (0e150ed, 2023-07-21)"
   xmlns:inkscape="http://www.inkscape.org/namespaces/inkscape"
   xmlns:sodipodi="http://sodipodi.sourceforge.net/DTD/sodipodi-0.dtd"
   xmlns="http://www.w3.org/2000/svg"
   xmlns:svg="http://www.w3.org/2000/svg">
  <defs
     id="defs4" />
  <sodipodi:namedview
     id="namedview4"
     pagecolor="#ffffff"
     bordercolor="#000000"
     borderopacity="0.25"
     inkscape:showpageshadow="2"
     inkscape:pageopacity="0.0"
     inkscape:pagecheckerboard="0"
     inkscape:deskcolor="#d1d1d1"
     inkscape:document-units="pt"
     inkscape:zoom="0.078111209"
     inkscape:cx="883.35593"
     inkscape:cy="1357.0395"
     inkscape:window-width="1312"
     inkscape:window-height="449"
     inkscape:window-x="0"
     inkscape:window-y="25"
     inkscape:window-maximized="0"
     inkscape:current-layer="svg4" />
  <g
     transform="matrix(0.1,0,0,-0.1,-19.875,2149.9034)"
     fill="#000000"
     stroke="none"
     id="g4">
    <path
       d="m 5165,21490 c -16,-5 -50,-14 -75,-21 -251,-64 -369,-123 -508,-253 -168,-157 -261,-331 -298,-556 -27,-166 -13,-330 41,-489 81,-240 281,-453 538,-574 l 77,-36 v -560 -560 l -117,-97 c -127,-105 -379,-355 -471,-468 -32,-38 -64,-73 -72,-79 -12,-7 -35,3 -92,40 -63,41 -88,52 -149,61 -142,22 -755,75 -879,76 -118,1 -128,-1 -183,-28 -41,-20 -71,-44 -100,-82 -37,-47 -498,-782 -639,-1019 l -53,-89 v -96 c 0,-100 14,-149 60,-215 11,-16 26,-41 33,-55 6,-14 30,-52 52,-85 21,-33 44,-71 50,-84 6,-13 20,-35 31,-50 56,-72 129,-205 129,-235 0,-44 -26,-88 -587,-989 -896,-1441 -965,-1552 -1000,-1594 -37,-46 -94,-83 -157,-103 -144,-46 -375,-244 -466,-400 -45,-77 -88,-179 -114,-271 -23,-81 -23,-400 0,-473 67,-207 131,-320 255,-447 191,-196 494,-322 813,-336 119,-5 141,-4 183,13 45,18 80,19 561,19 409,0 514,-3 521,-13 4,-7 11,-351 15,-765 7,-738 13,-915 36,-1073 24,-167 83,-429 119,-529 6,-16 24,-74 41,-128 17,-54 34,-105 39,-115 5,-9 20,-42 34,-72 99,-221 136,-293 225,-435 18,-27 36,-61 42,-74 15,-35 202,-281 285,-376 132,-151 250,-268 387,-381 75,-62 139,-117 141,-121 3,-4 8,-498 12,-1098 l 7,-1090 24,-100 c 28,-119 52,-184 94,-255 109,-185 279,-340 456,-416 101,-44 104,-50 104,-272 0,-169 -1,-183 -20,-202 -19,-19 -34,-20 -292,-20 -303,-1 -449,-10 -523,-35 -79,-27 -129,-82 -203,-225 -31,-60 -89,-173 -330,-640 -173,-336 -222,-427 -242,-445 -15,-13 -50,-22 -129,-31 -124,-14 -170,-33 -224,-93 -63,-70 -72,-95 -72,-201 0,-85 3,-100 27,-140 35,-59 80,-101 153,-142 l 60,-33 h 1576 1576 l 78,40 c 82,41 117,78 159,165 21,45 21,50 21,790 v 745 l -28,57 c -37,74 -111,141 -174,158 -76,19 -267,29 -544,30 h -257 l -6,22 c -10,40 -7,398 5,419 5,11 52,40 104,65 303,144 505,421 545,746 7,57 14,369 17,800 l 6,707 30,10 c 40,14 2005,15 2041,1 14,-5 28,-20 31,-32 3,-13 9,-365 14,-783 l 9,-760 27,-85 c 89,-278 266,-483 521,-605 71,-33 97,-51 104,-71 11,-27 14,-374 4,-410 -6,-21 -10,-21 -357,-26 -423,-7 -468,-14 -546,-84 -29,-26 -62,-69 -78,-102 l -28,-57 v -745 c 0,-740 0,-745 21,-790 42,-87 77,-124 159,-165 l 78,-40 h 1576 1576 l 60,33 c 73,41 118,83 153,142 24,40 27,55 27,140 0,106 -9,131 -72,201 -54,60 -100,79 -225,93 -93,11 -113,16 -133,37 -22,23 -60,93 -258,479 -49,96 -122,238 -162,315 -40,77 -101,196 -136,264 -68,130 -121,201 -173,228 -73,38 -133,44 -490,50 -323,5 -350,7 -367,24 -17,17 -19,37 -19,202 0,221 3,227 105,271 131,57 259,156 359,280 103,126 155,233 196,407 19,81 20,122 21,590 1,277 5,769 8,1094 l 6,589 95,79 c 161,133 237,205 362,341 116,126 336,407 358,457 6,13 24,47 42,74 89,143 120,202 224,433 14,31 30,65 35,74 5,10 22,61 39,115 17,54 35,112 41,128 6,17 17,53 24,82 7,28 16,56 20,62 6,11 17,66 71,361 25,133 25,145 35,980 6,465 12,855 14,866 4,18 14,22 62,28 78,8 964,9 985,1 9,-3 19,-16 22,-28 10,-36 7,-2834 -3,-2859 -7,-18 -71,-55 -262,-153 -264,-135 -318,-172 -364,-250 l -25,-44 v -440 -440 l 48,-63 c 68,-91 130,-120 249,-120 107,1 129,8 193,68 95,89 96,91 104,409 4,153 11,286 17,297 5,10 83,54 172,98 169,83 208,93 257,66 14,-8 77,-40 140,-72 63,-31 127,-66 143,-78 l 27,-20 v -304 -304 l -27,-25 c -16,-14 -138,-81 -273,-150 -322,-164 -359,-199 -368,-354 -8,-134 35,-215 149,-284 59,-36 62,-37 147,-33 l 87,3 377,188 c 331,165 381,194 421,236 25,26 55,68 67,91 l 22,43 -4,591 -4,591 -26,51 c -15,29 -46,67 -68,87 -36,30 -469,254 -526,271 -12,4 -26,17 -30,29 -5,12 -10,681 -11,1487 l -3,1466 82,39 c 46,22 112,59 148,82 123,79 317,302 352,406 6,17 15,37 20,44 5,6 21,53 36,105 25,87 27,104 25,270 -2,132 -7,187 -18,214 -8,20 -15,45 -15,56 0,27 -45,131 -98,223 -63,112 -225,273 -345,343 -90,53 -227,102 -338,123 -43,8 -293,13 -764,15 -385,3 -718,7 -741,10 l -41,5 -7,207 c -4,114 -11,223 -16,243 -15,56 -66,124 -123,163 l -52,36 -399,8 c -398,9 -399,9 -418,31 -17,22 -18,60 -19,770 0,792 -11,1337 -28,1411 -6,25 -22,110 -36,190 -51,286 -202,705 -343,950 -107,186 -137,235 -162,270 -243,327 -397,496 -631,696 l -149,127 v 559 559 l 78,36 c 483,227 703,733 536,1233 -104,311 -402,569 -728,629 -32,6 -65,16 -73,23 -8,6 -50,13 -93,16 -61,3 -95,0 -147,-16 -236,-72 -302,-95 -338,-116 -22,-14 -55,-32 -72,-41 -43,-23 -199,-170 -250,-237 -230,-298 -258,-747 -67,-1076 99,-170 270,-323 467,-415 l 77,-36 v -366 -365 h -36 c -19,0 -45,5 -57,12 -25,13 -219,83 -287,103 -25,7 -65,20 -89,29 -24,9 -51,16 -61,16 -10,0 -44,8 -76,19 -33,10 -86,22 -118,26 -33,4 -69,11 -81,15 -12,5 -109,18 -216,31 -350,40 -706,25 -1041,-45 -215,-45 -302,-71 -543,-161 -55,-21 -119,-40 -142,-42 l -43,-5 v 366 367 l 78,36 c 307,144 528,420 578,723 46,279 -20,562 -179,768 -51,67 -207,214 -250,237 -17,9 -50,27 -72,41 -45,27 -191,77 -274,94 -30,6 -61,16 -68,22 -18,14 -158,20 -198,8 z m 142,-640 c 113,-19 201,-83 259,-190 27,-49 29,-62 29,-155 0,-92 -3,-107 -29,-158 -38,-75 -92,-130 -165,-167 -54,-27 -70,-30 -153,-30 -82,0 -100,4 -153,29 -74,35 -134,93 -171,168 -26,51 -29,66 -28,157 0,89 3,107 26,151 66,124 163,187 313,204 6,0 38,-4 72,-9 z m 3407,-1 c 110,-20 198,-87 254,-194 23,-44 26,-62 26,-151 1,-91 -2,-106 -28,-157 -37,-74 -95,-131 -169,-168 -53,-26 -69,-29 -153,-29 -85,0 -100,3 -155,30 -71,36 -130,94 -166,164 -24,45 -27,63 -27,157 -1,98 1,109 28,160 67,123 167,186 317,198 8,0 41,-4 73,-10 z M 7125,18471 c 94,-5 206,-16 250,-25 44,-8 103,-19 130,-24 102,-19 259,-63 365,-104 30,-11 73,-27 95,-36 42,-16 203,-89 270,-124 66,-34 259,-157 314,-199 14,-11 52,-40 84,-64 120,-90 380,-348 460,-456 9,-13 34,-46 55,-74 76,-101 174,-258 225,-360 46,-92 105,-220 115,-250 6,-16 23,-61 37,-100 29,-77 57,-173 80,-277 8,-37 19,-77 24,-90 5,-13 12,-55 16,-93 4,-39 13,-110 21,-160 18,-115 31,-609 17,-627 -7,-9 -8,-140 -2,-413 12,-620 11,-928 -3,-948 -12,-16 -187,-17 -2733,-17 -2547,0 -2721,1 -2732,17 -18,23 -19,668 -1,679 8,5 9,91 2,343 -5,185 -9,410 -8,501 1,203 -3,193 182,490 74,118 152,251 174,295 37,76 38,84 34,155 -5,89 -36,166 -91,225 -59,63 -68,81 -61,119 4,19 13,39 21,46 8,7 15,18 15,24 1,29 138,268 223,387 21,30 50,70 63,89 105,148 353,389 575,559 52,40 245,163 304,194 56,29 240,114 280,129 126,48 156,59 210,76 69,23 177,50 250,63 28,6 86,17 130,26 68,13 238,27 400,31 22,0 117,-3 210,-7 z M 3635,17230 c 116,-11 215,-20 220,-20 31,-1 37,-17 21,-64 -9,-25 -20,-54 -25,-63 -31,-59 -63,-139 -87,-213 -14,-47 -31,-96 -36,-110 -6,-14 -16,-47 -24,-75 -7,-27 -19,-75 -27,-105 -30,-108 -46,-186 -53,-247 -5,-44 -13,-68 -28,-82 -21,-20 -24,-20 -191,-5 -184,16 -225,28 -251,71 -9,15 -30,47 -45,70 -16,23 -29,43 -29,46 0,3 -18,34 -40,68 -22,35 -52,88 -66,116 l -25,53 144,232 c 79,128 158,256 176,283 35,56 70,76 121,69 19,-2 130,-13 245,-24 z m -290,-1705 c 77,-8 150,-15 163,-15 12,0 31,-9 42,-20 20,-20 20,-33 20,-722 0,-639 -1,-703 -17,-720 -14,-16 -35,-18 -207,-19 -105,0 -274,-4 -376,-8 -154,-6 -193,-11 -231,-28 -69,-31 -122,-84 -153,-153 -26,-58 -28,-70 -33,-271 -4,-135 -10,-212 -17,-217 -18,-12 -696,-9 -711,3 -12,8 -4,26 37,95 50,82 1110,1787 1228,1974 48,77 86,116 110,116 3,-1 68,-7 145,-15 z m 3263,-2149 c 18,-11 17,-1029 -1,-1044 -8,-7 -208,-12 -612,-14 -644,-4 -662,-5 -797,-59 -26,-10 -55,-19 -65,-19 -15,0 -135,-57 -254,-120 -15,-8 -72,-51 -126,-94 -99,-81 -175,-161 -258,-271 -54,-73 -160,-283 -174,-345 -6,-25 -17,-61 -25,-80 -13,-32 -24,-102 -45,-280 -4,-36 -4,-94 0,-130 22,-183 32,-248 45,-280 8,-19 19,-54 25,-78 9,-41 72,-178 124,-271 76,-135 298,-362 423,-432 154,-87 253,-130 382,-165 30,-8 71,-20 90,-26 23,-7 251,-12 645,-15 397,-3 614,-8 623,-15 9,-8 12,-260 12,-1198 0,-1050 -2,-1189 -15,-1200 -12,-10 -117,-12 -493,-8 -497,6 -506,6 -762,57 -83,17 -289,76 -335,96 -16,7 -66,27 -110,43 -44,17 -93,38 -110,46 -16,9 -35,16 -41,16 -6,0 -17,6 -23,14 -7,8 -22,17 -34,20 -22,5 -103,49 -162,86 -16,11 -46,29 -65,40 -77,45 -114,72 -263,189 -118,92 -387,364 -437,441 -8,12 -33,46 -55,74 -40,50 -65,86 -95,137 -8,14 -32,54 -53,90 -21,35 -42,71 -47,79 -22,34 -140,288 -140,301 -1,8 -9,32 -20,54 -11,22 -20,47 -20,55 0,8 -9,33 -20,55 -11,22 -19,50 -20,62 0,12 -7,44 -16,70 -22,65 -53,210 -65,308 -36,286 -37,338 -36,2090 l 2,1720 29,5 c 48,8 3380,5 3394,-4 z m 4087,0 c 14,-5 15,-175 12,-1788 -3,-1723 -4,-1788 -24,-1943 -21,-167 -41,-265 -74,-375 -10,-36 -19,-74 -19,-85 -1,-11 -9,-38 -20,-60 -11,-22 -20,-47 -20,-55 0,-8 -9,-33 -20,-55 -11,-22 -19,-46 -20,-54 0,-16 -98,-223 -159,-336 -9,-16 -31,-52 -49,-78 -17,-26 -32,-51 -32,-54 0,-10 -49,-81 -91,-133 -20,-25 -49,-63 -63,-85 -70,-103 -381,-408 -500,-490 -28,-20 -76,-53 -106,-75 -30,-23 -71,-50 -90,-61 -19,-11 -48,-28 -65,-39 -59,-37 -140,-81 -162,-86 -12,-3 -27,-12 -34,-20 -6,-8 -17,-14 -23,-14 -6,0 -24,-7 -41,-16 -103,-53 -415,-157 -555,-184 -277,-54 -261,-53 -762,-58 -375,-4 -481,-2 -493,8 -13,11 -15,150 -15,1200 0,938 3,1190 13,1198 8,7 224,12 622,15 397,3 622,8 645,15 19,6 60,18 90,26 191,52 367,140 497,248 130,109 267,270 330,390 18,33 37,66 41,72 9,12 49,119 80,216 31,94 61,349 51,430 -22,186 -32,248 -45,280 -8,19 -19,54 -25,78 -9,41 -68,170 -124,272 -27,48 -110,156 -175,226 -44,48 -222,195 -261,215 -134,70 -237,119 -252,119 -10,0 -34,7 -55,16 -20,9 -73,25 -117,37 -76,19 -114,21 -687,24 -483,3 -609,7 -617,17 -8,9 -10,169 -9,527 l 3,514 29,5 c 42,7 3372,4 3391,-4 z m -9360,-716 c 84,-48 147,-125 173,-213 27,-91 27,-113 0,-205 -18,-59 -33,-85 -76,-132 -29,-33 -77,-72 -105,-87 -48,-26 -61,-28 -162,-28 -98,1 -114,3 -150,25 -106,63 -147,111 -186,215 -48,128 0,299 108,382 94,72 134,84 261,78 70,-3 91,-9 137,-35 z m 1196,30 c 18,-10 19,-25 19,-343 0,-246 -3,-336 -12,-345 -9,-9 -71,-12 -215,-12 -173,0 -205,2 -209,15 -4,9 4,43 17,78 23,58 24,75 23,267 0,188 -2,209 -22,259 -39,92 -41,91 184,91 116,0 203,-4 215,-10 z m 9244,-9 c 3,-10 -4,-43 -17,-72 -20,-50 -22,-70 -22,-259 -1,-192 1,-209 23,-267 13,-35 21,-69 17,-78 -4,-13 -35,-15 -201,-15 -116,0 -204,4 -216,10 -18,10 -19,25 -19,345 0,308 1,335 18,344 10,6 99,11 214,11 184,0 197,-1 203,-19 z m 1098,-12 c 203,-105 266,-336 145,-525 -30,-46 -81,-90 -148,-125 -39,-21 -58,-24 -150,-24 -95,0 -110,3 -157,28 -77,41 -151,128 -179,213 -30,86 -30,119 -2,211 17,57 33,86 70,127 54,61 123,105 183,117 68,13 193,2 238,-22 z m -4463,-998 c 95,-12 239,-67 294,-112 67,-54 97,-85 147,-147 33,-40 59,-78 59,-84 0,-6 6,-19 14,-27 8,-9 27,-52 42,-96 26,-73 28,-92 28,-220 0,-150 -11,-202 -72,-320 -50,-99 -175,-234 -256,-277 -102,-53 -149,-70 -252,-88 -109,-19 -160,-20 -1467,-20 -1309,0 -1358,1 -1469,20 -121,21 -253,73 -301,120 -8,8 -32,29 -52,45 -41,33 -120,130 -153,188 -12,20 -34,72 -49,115 -24,70 -27,90 -27,217 0,127 3,147 27,217 33,93 55,133 119,214 120,153 269,236 464,257 147,16 2779,14 2904,-2 z M 4625,6849 c 6,-4 28,-14 50,-22 22,-8 72,-27 110,-42 39,-14 93,-32 120,-40 28,-7 64,-18 80,-23 42,-15 183,-50 228,-58 20,-3 40,-11 44,-17 10,-16 11,-451 1,-477 -6,-17 -13,-21 -31,-15 -170,51 -361,68 -467,41 -30,-7 -86,-19 -124,-26 -64,-12 -70,-11 -83,5 -10,15 -13,88 -13,347 v 329 l 23,8 c 22,8 43,5 62,-10 z m 4722,-326 c 2,-263 -1,-334 -11,-349 -13,-17 -18,-17 -142,9 -80,17 -160,27 -211,27 -78,0 -244,-28 -306,-52 -20,-8 -31,-8 -39,0 -14,14 -14,480 -1,492 4,4 31,12 58,18 87,17 189,43 225,57 19,7 73,25 120,39 84,26 147,51 224,86 25,12 46,16 60,10 21,-7 21,-12 23,-337 z M 5054,5531 c 79,-37 138,-96 176,-177 26,-55 30,-75 30,-148 0,-67 -5,-94 -24,-136 -31,-67 -101,-149 -142,-166 -18,-8 -35,-18 -38,-23 -10,-16 -137,-32 -195,-26 -140,17 -261,120 -295,253 -19,71 -20,112 -5,184 21,99 95,191 194,239 52,25 71,29 149,29 78,0 97,-4 150,-29 z m 4081,0 c 127,-61 204,-184 205,-325 1,-173 -136,-329 -307,-350 -60,-7 -180,9 -203,28 -8,7 -27,17 -41,23 -31,13 -113,108 -124,143 -4,14 -14,34 -21,45 -9,13 -14,49 -14,107 0,77 4,96 30,152 38,80 97,139 175,177 52,25 71,29 150,29 79,0 98,-4 150,-29 z M 5581,3179 c 18,-9 19,-28 19,-347 0,-250 -3,-341 -12,-350 -9,-9 -228,-12 -924,-12 -792,0 -913,2 -924,15 -10,12 -1,36 47,132 128,253 223,436 232,447 5,6 12,23 16,37 4,14 19,40 35,57 l 29,32 732,-1 c 467,0 738,-3 750,-10 z m 4230,-10 c 12,-12 30,-40 41,-63 10,-22 57,-113 103,-201 181,-348 208,-405 195,-420 -11,-13 -135,-15 -924,-15 -696,0 -915,3 -924,12 -9,9 -12,100 -12,350 0,310 1,338 18,347 11,7 268,10 750,10 726,0 733,0 753,-20 z"
       id="path1" />
    <path
       d="m 5497,17435 c -102,-35 -137,-146 -72,-231 26,-34 65,-53 175,-84 127,-37 184,-58 188,-69 2,-6 -3,-11 -11,-11 -21,0 -84,-53 -114,-97 -47,-69 -63,-156 -63,-352 0,-143 4,-189 19,-243 36,-126 110,-198 240,-234 61,-17 66,-17 134,0 111,29 182,90 228,196 23,53 24,65 24,285 0,219 -1,233 -23,283 -13,30 -21,56 -19,58 3,3 60,-11 127,-31 166,-48 206,-46 262,10 71,71 48,194 -44,238 -18,8 -105,36 -193,62 -88,26 -218,64 -290,85 -71,21 -170,50 -220,65 -49,14 -126,37 -170,50 -111,33 -134,35 -178,20 z"
       id="path2" />
    <path
       d="m 7865,17200 -370,-5 -44,-25 c -57,-33 -84,-80 -78,-141 9,-100 71,-142 209,-140 90,2 107,-6 76,-37 -10,-10 -13,-74 -13,-250 0,-227 1,-239 24,-291 47,-110 114,-167 228,-197 68,-17 73,-17 134,0 130,36 204,108 240,234 25,88 27,386 4,477 -19,70 -15,75 63,75 119,0 198,87 170,187 -22,81 -108,126 -226,121 -26,-1 -213,-5 -417,-8 z"
       id="path3" />
    <path
       d="m 6486,15409 c -122,-29 -176,-176 -101,-275 54,-70 63,-72 506,-80 452,-8 468,-6 533,66 91,101 34,260 -104,289 -62,13 -777,13 -834,0 z"
       id="path4" />
  </g>
</svg>
